<svg width="112" height="56" viewBox="0 0 112 56" fill="none" xmlns="http://www.w3.org/2000/svg">
<path d="M106.259 35.5114C106.681 37.0751 107.303 37.7464 108.674 38.1152L109.18 38.2515L109.205 47.0521L108.686 47.1969C107.379 47.5619 106.813 48.0945 106.407 49.3398L106.174 50.0563H18.4863L18.4449 49.8783C18.0727 48.2784 17.3234 47.4918 15.8423 47.1459L15.502 47.0665V42.8393L15.9395 42.6851C16.1801 42.6003 16.4062 42.5096 16.4419 42.4836C16.4776 42.4575 16.7109 42.3273 16.9605 42.1941C19.3443 40.9223 20.7733 38.296 21.0423 35.6732L21.0871 35.2364H106.185L106.259 35.5114Z" fill="#F5F3ED"/>
<path d="M106.259 35.5113C106.681 37.0751 107.303 37.7464 108.674 38.1152L109.18 38.2514L109.205 47.0521L108.686 47.1968C107.379 47.5618 106.813 48.0944 106.407 49.3397L106.174 50.0562H18.4863L18.4449 49.8783C18.0727 48.2784 17.3234 47.4917 15.8423 47.1458L15.502 47.0664V42.8392L15.9395 42.685C16.1533 42.6097 16.5058 42.4213 16.5058 42.4213V46.2055L16.8517 46.3333C17.042 46.4036 17.2122 46.4803 17.23 46.5038C17.2478 46.5273 17.3645 46.5877 17.4891 46.6382C18.0141 46.8505 18.759 47.751 19.1109 48.5987L19.2634 48.966H105.381L105.426 48.8204C105.779 47.6614 106.686 46.7569 108 46.2537L108.18 46.1851L108.173 39.0157L107.868 38.9024C106.755 38.4899 105.801 37.5231 105.458 36.4596L105.38 36.217H20.9496C20.9496 36.217 20.9507 36.217 21.0423 35.6731L21.0871 35.2363H106.185L106.259 35.5113Z" fill="#C2B795"/>
<path d="M71.7516 37.1533C70.813 37.8723 70.4219 37.9181 69.5453 37.0645C69.4104 37.7726 69.5668 38.2843 70.0173 38.5212C70.2168 38.6513 70.4487 38.7232 70.687 38.7289C70.9252 38.7346 71.1604 38.6739 71.3659 38.5535C71.8514 38.2304 71.8083 37.6919 71.7516 37.1533Z" fill="#4F4C46"/>
<path d="M39.7694 40.7099C39.7216 40.7549 39.6703 40.8032 39.6138 40.8559C39.5187 40.3526 39.5312 39.8613 39.5435 39.3772C39.5546 38.9418 39.5655 38.5122 39.4978 38.085C39.435 38.0901 39.3739 38.1076 39.3179 38.1366C39.262 38.1656 39.2125 38.2056 39.1723 38.254C39.1321 38.3025 39.1019 38.3584 39.0837 38.4187C39.0655 38.4789 39.0596 38.5422 39.0663 38.6047V39.1837C39.0621 39.3265 39.0552 39.469 39.0482 39.6121C39.0371 39.8413 39.0258 40.0722 39.0258 40.3093C38.9549 40.2973 38.8853 40.2783 38.8181 40.2527C38.0764 39.7976 37.6475 39.9188 37.2861 40.697C37.231 40.8142 37.1833 40.9347 37.1431 41.0579C36.7979 42.038 36.8141 43.0505 36.8734 44.0603C36.9018 44.2954 36.9771 44.5224 37.0946 44.7281C37.1626 44.9023 37.2941 45.0444 37.4627 45.1258C37.6313 45.2072 37.8246 45.2219 38.0036 45.167C38.2125 45.1061 38.3955 44.9781 38.5242 44.8028C38.653 44.6276 38.7202 44.4149 38.7156 44.1976C38.748 43.6779 38.6509 43.511 38.2301 43.3548C37.4857 43.0828 37.2888 42.4123 37.7554 41.6987C38.0672 41.7889 38.3422 41.9758 38.5405 42.2324C38.7388 42.489 38.8502 42.8019 38.8586 43.1259C38.9261 44.0798 38.9055 45.0407 38.885 46L38.8849 46.0065C38.8833 46.0794 38.8817 46.1523 38.8802 46.2253C38.8871 46.3128 38.8749 46.4009 38.8444 46.4833C38.8139 46.5657 38.7658 46.6405 38.7034 46.7024C38.6411 46.7644 38.566 46.8121 38.4833 46.8423C38.4007 46.8724 38.3124 46.8842 38.2247 46.8769C37.8342 46.8844 37.4429 46.8744 37.0386 46.864C36.7169 46.8558 36.3869 46.8473 36.0427 46.8473C36.0574 46.9567 36.0699 47.072 36.0828 47.1911C36.1124 47.4646 36.1441 47.7577 36.2099 48.0429C36.2378 48.2057 36.3265 48.3518 36.4582 48.4518C36.5899 48.5518 36.7547 48.5981 36.9193 48.5814C37.0919 48.5814 37.2645 48.5835 37.4372 48.5856C37.7824 48.5898 38.1277 48.594 38.4729 48.5814C38.6813 48.5982 38.8884 48.5356 39.0525 48.4062C39.2166 48.2769 39.3256 48.0903 39.3576 47.884C39.4585 47.4891 39.5181 47.0848 39.5356 46.6777C39.5487 46.3355 39.546 45.9927 39.5434 45.6504C39.54 45.2169 39.5366 44.7841 39.5653 44.3538C39.5971 43.7969 39.6976 43.2462 39.8647 42.7139C39.9355 42.4608 40.0919 42.24 40.3072 42.0888C40.5225 41.9377 40.7835 41.8655 41.0461 41.8845C41.1189 42.3988 41.1674 42.8809 40.8492 43.3225L40.0589 43.274C39.9373 43.6388 39.84 44.0112 39.7676 44.3888C39.7492 44.4955 39.756 44.6049 39.7874 44.7085C39.8189 44.8121 39.8742 44.9069 39.9488 44.9853C40.0235 45.0638 40.1155 45.1238 40.2175 45.1605C40.3195 45.1972 40.4286 45.2095 40.5363 45.1966C40.7209 45.1899 40.9 45.1315 41.053 45.0282C41.2061 44.9249 41.327 44.7808 41.4021 44.6123C41.7408 43.9841 41.9412 43.291 41.9901 42.5793C42.0012 42.4464 42.0172 42.3132 42.0331 42.1797L42.0333 42.1777C42.0905 41.698 42.1482 41.2143 41.9901 40.724C41.7554 39.9969 41.2241 39.7518 40.5174 40.1046C40.3678 40.1889 40.2284 40.2901 40.102 40.4062C39.9965 40.4959 39.8952 40.5914 39.7694 40.7099Z" fill="#4F4C46"/>
<path fill-rule="evenodd" clip-rule="evenodd" d="M68.5284 44.8736C68.8387 44.3461 69.0026 43.7457 69.0031 43.134C68.67 43.3031 68.3178 43.4315 67.9539 43.5164C67.3748 43.5595 66.7933 43.5595 66.2142 43.5164C65.467 43.4787 65.1676 43.1394 65.1353 42.3854C65.1125 41.856 65.0845 41.3201 65.0549 40.7542L65.0549 40.7537L65.0546 40.75L65.0546 40.7498V40.7498L65.0546 40.7495C65.0421 40.5108 65.0294 40.2668 65.0166 40.0158L64.4771 40.7267L63.9053 39.8838C63.4623 39.9372 63.0583 40.1626 62.7806 40.5112C62.1708 41.1833 61.7927 42.0326 61.7017 42.9347C61.6298 43.4851 61.6252 44.0421 61.6882 44.5935C61.7421 45.0728 61.9741 45.1967 62.4488 45.1967C62.653 45.1983 62.8552 45.1559 63.0414 45.0722C63.2276 44.9885 63.3935 44.8656 63.5277 44.712C63.6556 44.5732 63.7697 44.4234 63.8839 44.2733C63.9648 44.1671 64.0458 44.0607 64.1319 43.958C64.2365 43.8494 64.3473 43.7469 64.4637 43.651C64.4919 43.7309 64.5178 43.8051 64.5422 43.8754C64.5994 44.0397 64.6489 44.1819 64.7037 44.3215C64.7886 44.591 64.9621 44.824 65.196 44.9828C65.43 45.1416 65.7108 45.217 65.993 45.1967H67.8649C67.9945 45.2082 68.1247 45.1842 68.2417 45.1272C68.3586 45.0703 68.4577 44.9826 68.5284 44.8736ZM62.581 43.2875C63.4819 42.9778 64.0672 42.1539 63.9916 41.3703C63.1663 41.7311 62.7428 42.3477 62.581 43.2875Z" fill="#4F4C46"/>
<path fill-rule="evenodd" clip-rule="evenodd" d="M85.5589 43.5756C85.4895 43.673 85.424 43.7644 85.3615 43.8516C85.2028 44.0731 85.0632 44.268 84.9277 44.4669C84.7911 44.6999 84.5932 44.8911 84.3555 45.0197C84.1177 45.1484 83.8492 45.2096 83.5791 45.1967C83.4055 45.2145 83.2314 45.1666 83.0915 45.0623C82.9517 44.9581 82.8561 44.8052 82.8239 44.6339C82.3464 42.9671 83.1961 40.864 84.7794 39.8784C84.7879 39.8855 84.7964 39.8926 84.8051 39.8998C84.8221 39.9138 84.8393 39.9281 84.8568 39.9425L84.8589 39.9443L84.8592 39.9445L84.8598 39.945C84.951 40.0203 85.0481 40.1005 85.1435 40.1854C85.2343 40.2662 85.3222 40.3513 85.4156 40.4417L85.4703 40.4947C85.487 40.5108 85.5039 40.5271 85.5211 40.5435L86.2791 39.8811V40.7644C86.2791 41.346 86.2791 41.9276 86.3087 42.5093C86.3465 43.1879 86.7025 43.5083 87.3876 43.5191C87.5602 43.5191 87.7327 43.5215 87.9052 43.5238L87.9057 43.5239C88.2506 43.5286 88.5952 43.5334 88.9386 43.5191C89.301 43.482 89.6612 43.4254 90.0174 43.3494C90.0143 43.6691 89.9918 43.9883 89.95 44.3053C89.8152 45.0189 89.5805 45.1967 88.8549 45.2047H87.304C86.4517 45.2047 86.0552 44.9032 85.7558 44.0953C85.719 43.9736 85.6723 43.8577 85.5991 43.6757C85.5865 43.6444 85.5731 43.6112 85.5589 43.5756ZM85.2271 41.3945C84.1698 41.8388 83.7275 42.4554 83.8569 43.2363C84.5663 43.0317 85.1408 42.2804 85.2271 41.3945Z" fill="#4F4C46"/>
<path fill-rule="evenodd" clip-rule="evenodd" d="M105.011 44.7765C105.231 44.3311 105.311 43.83 105.241 43.3386C104.925 43.4201 104.604 43.4803 104.28 43.519C103.908 43.5334 103.536 43.5286 103.164 43.5238C102.977 43.5214 102.79 43.519 102.603 43.519C101.934 43.5028 101.575 43.1312 101.554 42.4796C101.532 41.8279 101.532 41.1494 101.532 40.4815C101.53 40.3804 101.516 40.2803 101.5 40.1592L101.5 40.1588L101.5 40.1583L101.5 40.158L101.5 40.1572L101.499 40.1569L101.499 40.1563L101.499 40.1552C101.49 40.0871 101.48 40.0123 101.47 39.9268L100.774 40.5543L100.04 39.8757C99.9614 39.9079 99.8847 39.9457 99.8111 39.9888C99.1049 40.5108 98.5648 41.2253 98.2557 42.0465C97.9466 42.8677 97.8816 43.7605 98.0687 44.6176C98.0909 44.7787 98.171 44.9262 98.2941 45.0327C98.4171 45.1392 98.5748 45.1975 98.7376 45.1966C98.9731 45.2269 99.2124 45.1928 99.4299 45.098C99.6475 45.0031 99.8352 44.8511 99.973 44.658L100.06 44.5466L100.061 44.5464C100.296 44.2467 100.535 43.9426 100.823 43.5809C100.863 43.6885 100.897 43.7808 100.927 43.8639C100.974 43.9909 101.012 44.0961 101.055 44.2003C101.316 44.8331 101.753 45.1993 102.479 45.1993H104.286C104.437 45.2183 104.589 45.1872 104.72 45.1107C104.852 45.0343 104.954 44.9168 105.011 44.7765ZM100.001 42.5998C99.7354 42.9337 99.3658 43.1698 98.9507 43.2713C98.9673 42.8477 99.1188 42.4404 99.3832 42.1087C99.6476 41.777 100.011 41.5381 100.421 41.4267C100.415 41.8533 100.268 42.2659 100.001 42.5998Z" fill="#4F4C46"/>
<path fill-rule="evenodd" clip-rule="evenodd" d="M31.3413 39.8138L31.9779 40.6647L32.4877 40.0992C32.4979 40.2125 32.5071 40.3072 32.5154 40.3921L32.5155 40.3924C32.5269 40.5092 32.5365 40.6076 32.5443 40.7104C32.5579 40.8988 32.567 41.0879 32.576 41.2771C32.5957 41.6884 32.6153 42.0999 32.6819 42.5038C32.8113 43.2928 33.1134 43.5298 33.9091 43.5136C34.1078 43.5096 34.3093 43.5165 34.5134 43.5235H34.5139C35.1271 43.5444 35.7634 43.5661 36.4149 43.2955C36.4904 43.9364 36.4149 44.4911 36.0022 44.9327C35.8088 45.0952 35.5644 45.1848 35.3117 45.1858C34.9271 45.2091 34.5401 45.2014 34.1523 45.1936C33.9581 45.1897 33.7637 45.1858 33.5693 45.1858C33.2868 45.1956 33.0088 45.1135 32.7772 44.9517C32.5456 44.79 32.373 44.5574 32.2854 44.2891C32.2729 44.2597 32.2602 44.228 32.247 44.1953C32.1685 44.0003 32.0744 43.7667 31.9428 43.7344C31.731 43.6806 31.669 43.8532 31.6077 44.024C31.5832 44.0924 31.5587 44.1606 31.5248 44.2137C31.3789 44.4785 31.171 44.7041 30.9187 44.871C30.6665 45.038 30.3774 45.1414 30.0763 45.1724C29.6016 45.2128 29.4101 45.07 29.2671 44.615C28.7466 42.8754 29.5881 40.8047 31.3413 39.8138ZM30.5377 42.1132C30.7987 41.7853 31.171 41.5643 31.5841 41.4918C31.5783 41.9032 31.4363 42.3011 31.1802 42.6234C30.924 42.9459 30.5681 43.1747 30.168 43.274C30.1446 42.8549 30.2762 42.4418 30.5377 42.1132Z" fill="#4F4C46"/>
<path d="M53.7906 40.7832C53.796 41.6368 53.885 41.7607 54.8021 42.0461C54.7967 42.1093 54.7926 42.1712 54.7886 42.2321L54.7886 42.2324C54.7768 42.4127 54.7656 42.5833 54.7212 42.7463C54.7115 42.8941 54.6996 43.042 54.6877 43.1899C54.6599 43.5348 54.6322 43.8797 54.6322 44.2246C54.6322 44.8224 54.9559 45.1778 55.5331 45.1778C57.0624 45.2047 58.5891 45.2047 60.1184 45.1778C60.2324 45.1691 60.3435 45.138 60.4453 45.0863C60.5472 45.0345 60.6377 44.9631 60.7118 44.8762C61.0813 44.3888 61.1757 43.8099 61.1461 43.0263C60.7523 43.5258 60.3275 43.5239 59.9009 43.522C59.8745 43.5219 59.8481 43.5218 59.8217 43.5218H57.6909C57.5181 43.5218 57.3455 43.5248 57.1732 43.5278C56.8292 43.5338 56.4859 43.5397 56.1427 43.5218C55.463 43.476 55.1905 43.1152 55.3335 42.4447C55.401 42.1684 55.4912 41.8983 55.6032 41.6368C55.8026 41.0669 55.8699 40.4592 55.8001 39.8596C55.7758 39.5391 55.6248 39.4664 55.32 39.5903C55.2845 39.6069 55.2494 39.63 55.2134 39.6535C55.1621 39.6873 55.109 39.7221 55.0503 39.7411C54.6538 39.8569 54.4218 39.7384 54.2923 39.3184C54.2807 39.2768 54.266 39.2374 54.2475 39.1879C54.2361 39.1572 54.2232 39.1227 54.2087 39.0814C53.8257 39.6388 53.7906 39.8219 53.7906 40.7832Z" fill="#4F4C46"/>
<path d="M91.2096 39.4045V41.3783C91.6879 41.5268 92.1972 41.5454 92.685 41.4322C92.7516 41.2101 92.7554 40.9651 92.7592 40.719C92.7679 40.1476 92.7768 39.5705 93.5724 39.2618V40.0373C93.5724 40.2003 93.5717 40.3635 93.5709 40.5269V40.5274C93.5677 41.2439 93.5644 41.9632 93.6237 42.6736C93.6884 43.4464 93.8422 43.5298 94.6136 43.5325H96.2319C96.6797 43.5487 97.0896 43.5083 97.4268 43.1152C97.4268 43.7911 97.354 44.4292 96.9251 44.9597C96.7929 45.0967 96.6136 45.1784 96.4234 45.1886C95.7114 45.2128 94.9993 45.2263 94.2899 45.1886C93.9522 45.1659 93.6339 45.0229 93.3928 44.7857C93.1518 44.5485 93.004 44.2329 92.9763 43.8961C92.9511 43.6857 92.9379 43.474 92.9239 43.2492C92.9169 43.1374 92.9098 43.0223 92.9008 42.9024H91.3283C91.204 43.1628 91.2062 43.4591 91.2084 43.7588C91.2121 44.2586 91.2159 44.7677 90.6324 45.1348C90.5949 44.9572 90.5697 44.7772 90.5569 44.5962C90.5569 43.1986 90.5569 41.7984 90.5407 40.3981C90.5359 40.1978 90.5783 39.9991 90.6645 39.8181C90.7507 39.6371 90.8783 39.4788 91.037 39.356L91.2096 39.4045Z" fill="#4F4C46"/>
<path d="M82.0012 44.7685C82.215 44.3415 82.285 43.857 82.2008 43.3871C81.6802 43.4436 81.1947 43.4948 80.7011 43.519C80.2059 43.5464 79.7093 43.5401 79.2149 43.5002C79.1006 43.4882 78.99 43.4534 78.8894 43.3979C78.7889 43.3424 78.7005 43.2673 78.6296 43.177C78.2952 42.6142 78.0767 42.0218 78.403 41.3486C78.7303 40.6744 79.0334 39.9888 79.3361 39.3045L79.3361 39.3043C79.425 39.1032 79.5139 38.9022 79.6033 38.7017C79.661 38.5336 79.7069 38.3617 79.7409 38.1873C79.5444 38.2272 79.3583 38.3077 79.1948 38.4237C79.0313 38.5396 78.8939 38.6884 78.7915 38.8605C78.6215 39.1583 78.4782 39.4719 78.3348 39.7857C78.2642 39.9401 78.1937 40.0946 78.1198 40.2473C78.0713 40.3522 78.0168 40.4556 77.9289 40.6221C77.9101 40.6578 77.8897 40.6963 77.8676 40.7384C77.8552 40.762 77.8422 40.7868 77.8285 40.8128C77.7766 40.7014 77.7343 40.6089 77.6976 40.5287L77.6958 40.5247L77.695 40.5229L77.6944 40.5216L77.6935 40.5197L77.6928 40.5182L77.6926 40.5178C77.6291 40.3787 77.5826 40.2769 77.5318 40.1773C77.3241 39.7707 77.0679 39.7061 76.6984 39.9753C76.5679 40.0677 76.4573 40.1855 76.3734 40.3215C76.2896 40.4575 76.234 40.6091 76.2102 40.767C76.2631 40.8262 76.3152 40.8826 76.366 40.9378L76.3662 40.9379L76.3662 40.938C76.4681 41.0485 76.5653 41.1538 76.6552 41.2652C77.2837 42.0542 77.3323 42.6627 76.7739 43.5028C76.597 43.7687 76.3859 44.0119 76.1746 44.2551L76.1744 44.2554C76.0605 44.3866 75.9466 44.5178 75.8379 44.6527C75.7844 44.7291 75.736 44.8029 75.6864 44.8786L75.6858 44.8794C75.6483 44.9368 75.61 44.9952 75.5682 45.0566C76.2506 45.2774 76.5096 45.2316 76.8494 44.7389C77.0076 44.51 77.1359 44.2646 77.2713 44.0058L77.2714 44.0056L77.2714 44.0055L77.2719 44.0045L77.2722 44.0041L77.2728 44.0028C77.3631 43.8302 77.4565 43.6516 77.5642 43.4678C77.6288 43.5886 77.6904 43.7066 77.7507 43.8221C77.8868 44.0828 78.0164 44.3312 78.1603 44.5719C78.2393 44.7505 78.3668 44.9034 78.5284 45.0134C78.69 45.1233 78.8793 45.1859 79.0747 45.1939H81.3377C81.4794 45.2041 81.6207 45.1681 81.7403 45.0914C81.8599 45.0147 81.9515 44.9014 82.0012 44.7685Z" fill="#4F4C46"/>
<path fill-rule="evenodd" clip-rule="evenodd" d="M44.0239 43.5137C44.3963 43.5137 44.7606 43.5155 45.1194 43.5174H45.12C45.8214 43.5209 46.5017 43.5244 47.1796 43.5137C47.445 43.4499 47.6983 43.3435 47.9295 43.1986C47.9992 43.8269 47.8234 44.4577 47.4386 44.9597C47.3659 45.0341 47.279 45.0933 47.1832 45.134C47.0874 45.1747 46.9844 45.196 46.8803 45.1967C45.8688 45.2182 44.8573 45.2155 43.8458 45.1967C43.5838 45.1992 43.3281 45.1165 43.1174 44.961C42.9066 44.8056 42.7524 44.5858 42.6779 44.335C42.4199 43.647 42.3619 42.9002 42.5107 42.1808C42.6704 41.2428 43.1159 40.3768 43.7865 39.7007C43.8067 39.6809 43.8269 39.6602 43.8472 39.6393L43.8475 39.639L43.8479 39.6386C44.007 39.4753 44.1774 39.3003 44.4473 39.4314C44.7521 39.5795 44.7953 39.838 44.8115 40.1316C44.9102 41.1215 44.713 42.1184 44.245 42.9967C44.162 43.1649 44.0881 43.3375 44.0239 43.5137ZM43.328 42.4366C43.9888 41.7849 44.0805 41.4968 43.7865 40.9825C43.5981 41.1721 43.4581 41.4042 43.3783 41.6591C43.2985 41.914 43.2813 42.1844 43.328 42.4474V42.4366Z" fill="#4F4C46"/>
<path d="M72.0618 39.2968L71.8487 39.2294C71.7464 39.3471 71.661 39.4786 71.5952 39.6199C71.5469 39.8297 71.5163 40.0432 71.5035 40.2581C71.431 40.9667 71.1886 41.6474 70.7968 42.2427C70.7922 42.2493 70.7875 42.256 70.7828 42.2627L70.7662 42.2869C70.6135 42.5082 70.4457 42.7516 70.0362 42.7112V39.2887C69.8324 39.3959 69.6637 39.5591 69.5499 39.7591C69.4361 39.959 69.3821 40.1873 69.3943 40.417C69.3907 41.6413 69.3996 42.8665 69.4212 44.0926C69.4283 44.3283 69.4711 44.5616 69.548 44.7846C69.6855 45.202 69.9364 45.3232 70.2735 45.0539C70.5574 44.7987 70.8083 44.5093 71.0207 44.1922C71.1619 43.979 71.2907 43.7578 71.4064 43.5298C71.4627 43.6385 71.5108 43.7308 71.5532 43.8124C71.6349 43.9691 71.6958 44.0861 71.7544 44.203C71.8769 44.5043 72.0888 44.761 72.3617 44.9386C72.6346 45.1162 72.9554 45.2062 73.281 45.1966H74.5082C74.6496 45.2042 74.7897 45.1672 74.9088 45.0908C75.0279 45.0145 75.1199 44.9027 75.1718 44.7712C75.3835 44.309 75.4656 43.798 75.4091 43.2928C74.7326 43.5726 74.0562 43.5484 73.3874 43.5244L73.3872 43.5244C73.2001 43.5176 73.0136 43.511 72.8279 43.511C72.2884 43.5137 72.0942 43.3063 72.0618 42.7677V39.2968Z" fill="#4F4C46"/>
<path d="M49.2025 42.1538L50.4352 40.3146L51.4116 41.7526C51.4871 41.8438 51.5304 41.9574 51.5348 42.0757C51.5392 42.1939 51.5044 42.3103 51.4359 42.4069C51.2788 42.6594 51.1218 42.9136 50.9541 43.1851C50.8338 43.3799 50.708 43.5835 50.5728 43.8018C50.4814 43.696 50.3942 43.5965 50.3102 43.5007L50.3094 43.4998C50.1607 43.33 50.022 43.1717 49.8876 43.0101C49.7318 42.8226 49.5729 42.6218 49.3958 42.3978C49.3665 42.3607 49.3367 42.323 49.3063 42.2846C49.2724 42.2418 49.2379 42.1983 49.2025 42.1538Z" fill="#4F4C46"/>
<path d="M26.4026 40.654C26.349 40.6241 26.3087 40.604 26.2783 40.5889C26.2292 40.5645 26.2056 40.5527 26.1922 40.5328C26.1019 40.3995 26.0163 40.2632 25.9174 40.1059C25.8865 40.0566 25.8542 40.0052 25.82 39.9512L26.3271 39.1433L26.8666 39.9512L26.4026 40.654Z" fill="#4F4C46"/>
<path d="M24.9893 39.2887C25.5611 39.9646 25.5611 40.0158 24.9893 40.6136C24.3015 40.04 24.4606 39.7438 24.9893 39.2887Z" fill="#4F4C46"/>
<path d="M58.1683 40.5624C57.5318 40.0858 57.5345 39.7815 58.1332 39.2726C58.7239 39.8165 58.7293 39.9162 58.1683 40.5624Z" fill="#4F4C46"/>
<path d="M19.4904 41.4976C19.5061 41.1296 19.5216 40.7691 19.406 40.39C19.1275 39.4767 20.0549 37.4705 20.1235 40.3685C20.1397 40.5857 20.1439 40.8053 20.1481 41.0249C20.1502 41.1347 20.1523 41.2445 20.1559 41.354C20.4785 41.0923 20.7363 40.8132 20.9853 40.5438L20.9853 40.5437C21.1027 40.4167 21.218 40.2918 21.3373 40.1719C21.5951 39.9154 21.9051 39.717 22.2462 39.5903C22.8261 39.4018 23.0176 39.5634 23.1066 40.1612C23.1297 40.3176 23.1468 40.474 23.1715 40.6992L23.1715 40.6994L23.1721 40.7046C23.1761 40.7414 23.1804 40.7801 23.1849 40.8209C22.613 40.3981 22.2058 40.6674 21.8524 40.9932C21.5434 41.292 21.2601 41.6163 21.0055 41.9626C20.8923 42.1194 20.8313 42.3078 20.8313 42.5012C20.8313 42.6945 20.8923 42.8829 21.0055 43.0397C21.1372 43.2776 21.3339 43.4732 21.5727 43.6038C21.8114 43.7344 22.0824 43.7946 22.3541 43.7775H26.7533C26.8337 43.7775 26.915 43.7795 26.9969 43.7815C27.4648 43.7928 27.9517 43.8046 28.3879 43.4517C28.4061 43.8058 28.3771 44.1608 28.3015 44.5073C28.1127 45.272 27.87 45.4524 27.0797 45.4551C26.5855 45.4551 26.0919 45.4527 25.5982 45.4503L25.5951 45.4503C24.6049 45.4455 23.6139 45.4407 22.6157 45.4551C21.6016 45.474 20.9488 44.9947 20.5173 44.1303C20.466 44.0243 20.4089 43.9206 20.3421 43.7995L20.3421 43.7995L20.3417 43.7988C20.3069 43.7355 20.2694 43.6674 20.2287 43.5917C20.0656 43.8615 20.0052 44.1488 19.9466 44.4275C19.8754 44.7663 19.8069 45.0922 19.5598 45.3582C19.4989 44.8092 19.4727 44.257 19.4815 43.7048C19.4815 43.5181 19.4836 43.3314 19.4857 43.1447C19.4899 42.7713 19.4941 42.3979 19.4815 42.0245C19.4755 41.8454 19.483 41.6706 19.4904 41.4976Z" fill="#4F4C46"/>
<path fill-rule="evenodd" clip-rule="evenodd" d="M73.2285 5.70457C73.3253 5.26665 73.6618 3.84186 73.8195 3.20201C73.8749 2.97713 73.877 2.9878 74.1007 4.69048C74.3832 6.83904 74.4631 6.99456 75.6648 7.73607C76.7763 8.42186 77.1246 8.82523 77.1952 9.50876C77.3048 10.5689 76.57 11.3484 75.3505 11.4654L74.9454 11.5043L74.945 11.7377C74.9445 12.0276 74.7669 16.2139 74.7195 17.0512C74.7004 17.3894 74.6418 18.8018 74.5893 20.1899C74.5369 21.5781 74.48 22.9177 74.463 23.1669C74.4461 23.416 74.4124 24.1914 74.3882 24.89L74.3442 26.1602L74.5891 26.2409C75.1469 26.4247 76.5808 26.0505 76.7215 25.6844C76.9103 25.1933 77.0901 21.5578 77.0797 18.4426C77.0717 16.0487 77.0774 15.6601 76.9152 15.5687C76.877 15.5472 76.8294 15.5422 76.7702 15.5313C75.8764 15.3671 75.429 14.8247 75.4349 13.9125C75.4404 13.0615 75.8761 12.5565 76.9783 12.1239C78.05 11.7032 78.1839 11.5227 78.6083 9.92684C78.773 9.30704 78.9545 8.63976 79.0114 8.444L79.115 8.08806L79.2966 9.54417C79.4445 10.73 79.5024 11.2173 79.7515 11.5701C79.9299 11.8227 80.2063 12.0063 80.684 12.3281C81.7816 13.0675 82.0591 13.5335 81.8852 14.3447C81.7437 15.005 81.3149 15.4046 80.5757 15.5654L80.2097 15.645L80.1709 16.1054C80.1496 16.3587 80.1003 17.1483 80.0614 17.8602C80.0225 18.572 79.896 20.7271 79.7802 22.6491C79.594 25.7395 79.555 26.2076 79.7692 26.4151C79.8178 26.4622 79.8794 26.4959 79.9552 26.5437C80.742 27.0395 81.9612 27.0799 82.6838 26.6341C82.9407 26.4755 82.9691 26.418 83.0251 25.9426C83.0446 25.777 83.0548 25.6784 83.1074 25.6433C83.1852 25.5914 83.3558 25.6783 83.7867 25.8929L84.2333 26.1154L84.1915 25.8103C83.9054 23.7264 84.276 21.396 85.2153 19.3726C86.1661 17.3242 89.8001 16.5418 93.7218 17.541C94.3686 17.7059 95.2502 17.9598 95.2886 17.9922C95.3002 18.002 95.0575 18.7917 94.7493 19.7471C94.4412 20.7025 94.1452 21.6219 94.0916 21.7902L93.9941 22.0961L93.6261 21.9119C91.3957 20.7957 87.9749 21.2204 87.9749 22.6135C87.9749 22.8752 88.0011 22.8692 88.6877 22.4517C89.0289 22.2441 89.1897 22.1442 89.3512 22.1429C89.5018 22.1417 89.6531 22.2264 89.9521 22.3895C90.166 22.5063 90.7593 22.8118 91.2705 23.0683L92.1999 23.5347L91.9149 23.8376L92.1976 23.9097C94.6933 24.5471 95.5915 25.3867 95.5915 27.0822C95.5915 29.3673 93.5635 30.7016 90.0493 30.7286C87.4458 30.7485 85.854 29.9306 84.9111 28.0886L84.7107 27.697L84.6339 28.0529C84.3807 29.2256 83.6904 30.1283 82.8539 30.3804C81.5975 30.759 77.7152 30.8616 72.7402 30.6475C71.0104 30.573 69.215 30.5121 68.7505 30.5121H67.9059L67.6759 30.2694C66.9443 29.4974 66.804 28.447 67.1343 26.2132C67.2926 25.1417 67.2962 25.0346 67.2962 21.3186V17.5196L66.9883 17.4422C66.1983 17.2437 65.9135 16.8994 65.8797 16.1023C65.8422 15.2195 66.0603 14.9521 67.3401 14.3113C67.6775 14.1423 67.89 14.0494 68.0492 13.8999C68.3577 13.6103 68.4662 13.1084 68.8948 11.4302C69.1072 10.5984 69.1191 10.62 69.3389 12.2299C69.4568 13.093 69.486 13.4782 69.6628 13.776C69.8424 14.0787 70.1745 14.2912 70.9068 14.8236C71.595 15.3239 71.8101 16.0196 71.4913 16.7133C71.2787 17.1758 70.9666 17.3746 70.2055 17.532C70.0522 17.5637 70.0319 17.6034 69.9962 17.9401C69.7736 20.0376 69.8 23.5458 70.0563 25.9331C70.1033 26.3701 70.1492 26.3754 70.8291 26.0222C71.4654 25.6917 71.6138 25.0125 71.7071 22.002C71.7414 20.8986 71.7993 19.3842 71.8359 18.6367C71.9239 16.8397 71.9952 11.9657 71.9379 11.661C71.8941 11.4277 71.8848 11.4209 71.6109 11.4209C70.4677 11.4209 69.6947 10.7136 69.6947 9.66752C69.6947 8.54496 70.0472 8.15374 71.6095 7.5423C72.6169 7.14801 73.0072 6.70501 73.2285 5.70457ZM75.4777 8.29191C74.317 7.52316 73.7786 6.94318 73.7786 6.46162C73.7786 6.3815 73.7494 6.29803 73.7137 6.27602C73.6781 6.25401 73.6489 6.28256 73.6489 6.3395C73.6489 6.5543 73.3638 7.00025 73.0104 7.33806C72.6573 7.67562 72.4417 7.79464 71.1532 8.36336C70.4214 8.68643 70.1655 9.06313 70.2332 9.71793C70.3106 10.4673 70.6614 10.7335 71.7279 10.8525C72.2354 10.9092 72.4237 10.955 72.4536 11.0293C72.5351 11.232 72.5598 14.6741 72.4918 16.3393C72.4533 17.2826 72.3912 19.0299 72.3539 20.2223C72.1966 25.2456 72.06 26.0246 71.2621 26.4487C70.0913 27.071 69.6108 26.9685 69.5003 26.0728C69.2706 24.211 69.2174 20.225 69.3962 18.2838C69.4534 17.6625 69.5002 17.1164 69.5002 17.0704C69.5002 17.0126 69.6037 16.9865 69.833 16.9865C70.6505 16.9865 71.0206 16.7146 71.0224 16.113C71.0238 15.6174 70.9362 15.5047 70.1245 14.9579C69.4616 14.5114 69.2035 14.244 69.0529 13.848L68.934 13.5351L68.856 13.7708C68.7444 14.1086 68.2798 14.4869 67.4907 14.8828C66.489 15.3852 66.3026 15.636 66.4485 16.2844C66.5439 16.7084 66.7942 16.8577 67.5747 16.9561L67.8856 16.9953L67.8621 21.3107C67.8395 25.4551 67.8329 25.6568 67.6931 26.4026C67.4167 27.8784 67.4961 29.0716 67.9105 29.6687L68.08 29.9128L69.6166 29.9586C70.4617 29.9839 71.6491 30.032 72.2552 30.0656C76.8758 30.3216 82.2719 30.1546 82.9526 29.7346C83.9578 29.1144 84.491 27.2458 83.8464 26.6022C83.6301 26.3863 83.547 26.3914 83.4585 26.6256C82.9657 27.929 79.3938 27.6823 79.0517 26.3212C79.0117 26.1622 79.5658 15.9784 79.6502 15.3201L79.6855 15.045L80.0866 15.0436C80.9699 15.0405 81.4742 14.5252 81.3325 13.7708C81.2767 13.4738 81.0214 13.2298 80.1787 12.6678C79.4393 12.1747 78.9645 11.6251 78.9645 11.2624C78.9645 11.0868 78.8637 11.1542 78.7798 11.386C78.6272 11.807 78.1926 12.1638 77.3209 12.5838C76.1044 13.1699 75.9264 13.3792 76.0036 14.1321C76.0609 14.6911 76.3766 14.9152 77.2556 15.0211L77.5888 15.0611L77.6374 16.9137C77.7484 21.1361 77.4961 25.7068 77.1303 26.1019C76.8729 26.38 76.3437 26.6565 75.9178 26.7356C75.8643 26.7455 75.6455 26.7859 75.4316 26.8253C74.7882 26.9437 73.8659 26.7251 74.0123 26.4887C74.0403 26.4435 74.0291 26.4328 73.9833 26.461C73.7718 26.5915 73.7633 26.2189 73.903 22.9316C73.9791 21.1389 74.1125 17.9394 74.1993 15.8216C74.2861 13.7038 74.372 11.7672 74.3902 11.518C74.4083 11.2688 74.424 11.032 74.425 10.9916C74.4262 10.9438 74.6489 10.9093 75.0642 10.8927C76.1697 10.8484 76.6728 10.4308 76.6164 9.60468C76.5817 9.09659 76.432 8.92393 75.4777 8.29191ZM94.5657 18.3675C94.4995 18.3013 92.7221 17.8935 92.0949 17.8004C88.9289 17.3308 86.4326 18.0838 85.6664 19.7394C84.3437 22.5974 84.3489 26.1998 85.6787 28.2794C86.7692 29.9847 89.4416 30.6356 92.3397 29.9017C94.8685 29.2613 95.9214 26.9441 94.3554 25.4656C93.9031 25.0385 92.9159 24.5793 93.2744 24.9627C94.2231 25.9775 91.9272 27.6196 89.7019 27.5179C87.8339 27.4325 86.9125 26.4743 87.3167 25.0372C87.5327 24.2692 87.6777 24.2275 88.7639 24.6219L89.5205 24.8966L90.2822 24.3219C90.7012 24.0058 91.0539 23.7176 91.0659 23.6814C91.078 23.6452 90.6979 23.4133 90.2212 23.166L89.3546 22.7163L87.8133 23.6521L87.7015 23.5065C87.4223 23.143 87.3208 22.5222 87.4789 22.1455C87.5988 21.8601 87.9069 21.507 87.9909 21.5588C88.0288 21.5821 88.0412 21.5712 88.0184 21.5345C87.9393 21.4066 88.5669 21.0678 89.2714 20.8581C90.2884 20.5554 92.4148 20.7148 93.3106 21.161C93.6423 21.3262 93.6574 21.3066 93.9702 20.3032C94.1338 19.7782 94.3415 19.1346 94.4318 18.873C94.5219 18.6114 94.5822 18.384 94.5657 18.3675ZM92.3667 24.8757C92.0726 24.6131 91.8174 24.3832 91.7995 24.365C91.6977 24.2605 91.6364 24.1935 91.564 24.1778C91.439 24.1506 91.2808 24.276 90.8237 24.6246C90.4513 24.9087 90.0203 25.2313 89.866 25.3416L89.5854 25.5421L88.7757 25.238C88.3304 25.0707 87.9528 24.9471 87.9366 24.9632C87.8587 25.0411 87.7653 25.7191 87.8041 25.9256C88.0677 27.3284 91.3239 27.3081 92.626 25.8955C93.0011 25.4885 92.9859 25.4286 92.3667 24.8757Z" fill="#4F4C46"/>
<path fill-rule="evenodd" clip-rule="evenodd" d="M95.8138 22.7995C96.1764 19.3319 97.2729 17.8539 99.9349 17.2444C103.46 16.4373 106.365 18.9078 105.406 21.8982C105.298 22.2372 104.552 23.7202 104.51 23.6791C104.491 23.6599 104.329 23.3475 104.15 22.9849C103.851 22.3787 103.797 22.3091 103.481 22.1215C102.199 21.3591 99.3106 21.656 98.6095 22.6222C97.9877 23.4791 97.995 25.1028 98.6233 25.7005C99.8194 26.8385 103.488 26.8112 103.39 25.665C103.364 25.362 103.214 25.2809 101.762 24.783C101.001 24.5221 100.634 24.3682 100.716 24.3445C100.974 24.2699 102.481 23.9819 103.008 23.9065C105.362 23.5695 107.152 24.915 107.162 27.0303C107.163 27.4083 106.704 28.747 106.522 28.8942C106.5 28.912 106.439 29.0093 106.387 29.1104C106.279 29.3193 105.311 30.2532 105.202 30.2532C105.163 30.2532 105.085 30.294 105.029 30.3439C104.144 31.1279 100.793 31.1276 98.9101 30.3433C96.5813 29.373 95.4219 26.5484 95.8138 22.7995ZM104.706 22.1231C105.556 20.1857 104.739 18.5112 102.638 17.8807C101.654 17.5852 100.224 17.6648 99.1695 18.0737C98.3557 18.3891 97.1799 19.2932 97.1799 19.6033C97.1799 19.6467 97.1087 19.8571 97.0217 20.0709C95.8246 23.0122 96.2033 27.2987 97.8027 28.911C99.5958 30.7185 103.842 30.9271 105.483 29.2882C107.727 27.0481 106.21 23.973 103.102 24.4615L102.787 24.511L103.014 24.6042C104.674 25.286 104.15 26.8481 102.185 27.078C101.387 27.1712 99.4487 26.9347 99.4487 26.7441C99.4487 26.7123 99.4208 26.7034 99.3866 26.7245C99.2621 26.8013 98.3606 26.31 98.1278 26.0384C97.3323 25.1106 97.3973 23.1237 98.2541 22.1723C99.5101 20.7777 103.286 20.7625 104.345 22.1476L104.568 22.4384L104.706 22.1231Z" fill="#4F4C46"/>
<path fill-rule="evenodd" clip-rule="evenodd" d="M27.1462 18.8632C27.0665 18.7862 27.6616 18.497 28.4992 18.2057C28.8914 18.0694 29.249 17.9577 29.2938 17.9575C29.3417 17.9574 29.2011 18.3043 28.953 18.7985C28.7207 19.2612 28.5148 19.6398 28.4954 19.6398C28.4473 19.6398 27.2172 18.9317 27.1462 18.8632ZM28.3492 19.1033C28.3998 19.0874 28.4318 19.0125 28.4996 18.8626C28.6477 18.5345 28.6376 18.529 28.2099 18.7037L27.8557 18.8483L28.0802 18.985C28.2272 19.0744 28.2978 19.1194 28.3492 19.1033Z" fill="#4F4C46"/>
<path fill-rule="evenodd" clip-rule="evenodd" d="M35.948 17.6504C36.0046 17.5938 37.2172 17.4222 37.8987 17.3742C42.3954 17.0578 46.3358 18.1682 47.0055 19.9404C47.779 21.987 45.407 23.9957 40.9454 25.0724C38.013 25.7801 35.3775 25.9584 33.0571 25.6062L32.7612 25.5613L33.6935 23.2316C34.2063 21.9502 34.6537 20.8436 34.6878 20.7724C34.7218 20.7012 35.0147 19.9741 35.3388 19.1567C35.6628 18.3392 35.937 17.6614 35.948 17.6504ZM46.6175 21.4009C47.3395 19.4942 45.1802 18.1071 40.9581 17.7655C39.2986 17.6313 36.4644 17.7756 36.2363 18.006C36.1436 18.0996 33.2983 25.1967 33.3376 25.2359C33.4958 25.3938 36.3843 25.4402 37.5541 25.3036C42.2338 24.7571 45.9531 23.1556 46.6175 21.4009Z" fill="#4F4C46"/>
<path fill-rule="evenodd" clip-rule="evenodd" d="M61.1152 25.5296C60.2387 25.2294 59.9306 22.3391 60.6885 21.5269C60.8467 21.3574 60.9613 21.354 61.3025 21.5087C62.9163 22.2406 62.7373 26.0849 61.1152 25.5296ZM61.3756 25.2054C62.1707 25.2054 62.3033 23.049 61.5614 22.1838C61.0278 21.5614 60.819 21.7073 60.6785 22.8005C60.5263 23.9858 60.8798 25.2054 61.3756 25.2054Z" fill="#4F4C46"/>
<path d="M3.47536 31.7957C3.21872 29.6597 5.83267 26.7728 9.62556 25.0032C10.1319 24.767 10.6403 24.9152 10.6403 25.2991C10.6403 25.6112 10.3294 25.8469 8.63078 26.8222C6.99937 27.759 6.23172 28.5112 5.69052 29.7032C5.59354 29.9167 5.48308 30.1469 5.44509 30.2147C5.4071 30.2825 5.36757 30.399 5.35719 30.4736C5.34689 30.5482 5.28784 30.813 5.22593 31.0622C5.16175 31.3205 5.09609 31.9185 5.07321 32.4536L5.03307 33.392L4.8386 33.3712C4.10875 33.2933 3.5822 32.6847 3.47536 31.7957Z" fill="#4F4C46"/>
<path d="M7.43213 35.5821C7.56793 35.1832 7.74511 34.9494 7.98255 34.8556C8.56188 34.6267 10.0934 35.0706 10.2475 35.512C10.5359 36.3379 10.1041 37.3477 9.48898 37.286C9.07891 37.2449 8.8825 37.1777 8.93325 37.0958C8.95704 37.0573 8.9437 37.0477 8.90201 37.0734C8.79958 37.1366 8.42153 36.9305 8.47664 36.8415C8.50243 36.7998 8.49186 36.7876 8.45155 36.8125C8.41324 36.8361 8.3431 36.8187 8.29571 36.7737C8.24827 36.7287 8.049 36.5611 7.8529 36.4012C7.50308 36.116 7.37228 36.022 7.35235 35.9085C7.33874 35.8311 7.3768 35.7446 7.43213 35.5821Z" fill="#4F4C46"/>
<path fill-rule="evenodd" clip-rule="evenodd" d="M70.6174 5.68645C72.4346 4.43078 72.9725 3.57296 73.816 0.585289C73.9158 0.231682 74.0055 -0.0304122 74.0151 0.00284632C74.0248 0.0361127 74.0935 0.522129 74.1677 1.08296C74.4791 3.43629 75.1089 4.78897 76.5747 6.25227C77.8059 7.4816 78.1181 7.5537 78.9005 6.7894C79.2209 6.47637 79.4832 6.24734 79.4834 6.28047C79.4947 8.04561 80.5491 10.0344 82.1364 11.2845C84.1273 12.8524 84.1078 15.5936 82.0975 16.7698C81.8347 16.9236 81.8252 16.9408 81.7895 17.3296C81.76 17.65 81.4132 23.6422 81.3466 24.9789C81.331 25.2915 81.3368 25.3032 81.5166 25.3237C82.1297 25.3937 82.2954 25.0292 82.462 23.2433C82.7319 20.3498 83.778 17.8143 85.1311 16.7736C87.4043 15.0253 91.266 14.9732 96.6085 16.6189C96.9113 16.7122 96.9132 16.7118 97.2891 16.4834C100.882 14.3005 105.909 15.6719 107.081 19.1545C107.406 20.1196 107.294 21.995 106.862 22.8291C106.769 23.0083 106.772 23.0234 106.915 23.1176C108.384 24.0863 109.205 26.5357 108.632 28.2432C107.557 31.4483 105.042 32.9376 101.288 32.5913C99.1065 32.3902 97.545 31.7746 96.2907 30.6215L96.0174 30.3701L95.6425 30.6902C93.168 32.8034 88.169 33.0695 85.4589 31.2321C85.2169 31.0681 85.1147 30.9853 85.0192 30.9924C84.9246 30.9995 84.8367 31.0948 84.6261 31.287C83.6126 32.2117 82.2371 32.4241 77.3115 32.4166C75.6358 32.414 73.623 32.3771 72.8386 32.3348C72.0543 32.2924 70.4936 32.2396 69.3706 32.2174L67.3286 32.1772L67.0693 31.9678C66.7028 31.6718 66.3211 31.2971 66.0957 31.0122L65.9025 30.7679L65.5583 31.0003C62.9483 32.7621 59.8237 32.8472 57.0865 31.2311L56.7623 31.0397L56.341 31.3617C55.6744 31.8711 54.5922 32.4925 53.2943 33.1111C52.6347 33.4255 51.9492 33.7552 51.7709 33.8439L51.4468 34.005L79.3048 34.0059C94.6267 34.0064 107.163 34.0214 107.163 34.0393C107.163 34.0572 107.281 34.5011 107.426 35.0256C107.81 36.4135 108.05 36.6721 109.237 36.9805C109.54 37.0592 109.941 37.167 110.128 37.22L110.469 37.3165V42.6833C110.469 47.3399 110.456 48.0501 110.374 48.0501C110.322 48.0501 109.892 48.1554 109.418 48.2841C107.85 48.7101 107.834 48.7299 107.23 51.0108L107.158 51.2859H17.5258L17.3848 50.752C16.8444 48.7068 16.839 48.7013 14.8865 48.1831L14.238 48.011V43.3409L13.2981 43.3088C10.5297 43.2143 8.09683 41.7105 7.42564 39.679C6.99547 38.377 6.79738 38.1957 4.87101 37.3412C3.49981 36.733 3.31486 36.6197 2.69418 36.0083C0.994696 34.334 0.569828 30.796 1.80187 28.5771C3.10555 26.2292 5.30306 24.5401 8.43631 23.4777C10.4101 22.8084 10.9384 22.445 11.9118 21.0877C12.0733 20.8624 12.1607 20.755 12.1689 20.6419C12.1784 20.5105 12.0813 20.3714 11.8698 20.031C10.3972 17.6604 10.0292 15.1883 10.9415 13.7929C11.0915 13.5635 11.1243 13.5458 11.3585 13.5681L11.6127 13.5923L11.614 13.0729C11.6168 12.021 12.0073 11.3201 12.5858 11.3286C12.7249 11.3306 12.8048 11.341 12.8563 11.3077C12.9378 11.2548 12.9481 11.0923 13.0098 10.6128C13.1314 9.66862 13.7262 9.51595 14.2693 10.2896C14.3947 10.4682 14.5448 10.6807 14.6028 10.7618L14.7082 10.9092L14.9057 10.712C15.3918 10.2267 15.6475 10.574 15.8562 12.0034C15.9593 12.709 15.9815 12.9015 16.0701 12.9396C16.109 12.9563 16.1608 12.9433 16.2377 12.9308C16.4981 12.8886 16.8576 13.1646 17.0612 13.5631C17.1607 13.7579 17.291 13.8626 17.694 14.0719C17.9731 14.2169 18.3657 14.4817 18.5666 14.6604C19.1871 15.2126 19.5129 15.7733 19.9556 17.0512C19.9753 17.1082 20.0391 17.0052 20.1102 16.8016C21.0717 14.0446 23.9786 11.9946 28.2399 11.0684C31.0429 10.4591 31.6164 10.2964 32.6128 9.82795C33.8272 9.2569 35.1035 8.27165 36.1755 7.07784C36.4755 6.7436 36.7392 6.46247 36.7615 6.45308C36.8405 6.41981 37.4701 7.45332 37.8759 8.28221C38.6486 9.86114 38.9897 10.0651 42.4687 11.03C48.1272 12.5994 49.7517 13.6046 51.972 16.9106C51.9799 16.9223 52.8713 16.3725 53.953 15.6888C57.6962 13.3229 57.9687 13.1537 57.9939 13.1789C58.0078 13.1928 57.9777 13.9606 57.927 14.885C57.8763 15.8095 57.8341 16.5881 57.8334 16.6152C57.8326 16.6424 57.9414 16.617 58.075 16.5589C59.5814 15.9031 60.8759 15.8182 62.9355 16.24C63.5498 16.3658 64.0822 16.4688 64.1185 16.4688C64.1582 16.4688 64.1847 16.2527 64.1847 15.929C64.1847 14.7165 64.7989 13.7343 65.9261 13.1444C66.8125 12.6805 67.1241 12.209 67.3982 10.917C68.0702 7.74972 68.395 7.22217 70.6174 5.68645ZM77.2355 7.3094C75.9932 6.43405 74.8008 4.86812 74.2974 3.45097C74.1881 3.14299 74.0467 2.65031 73.9833 2.35617C73.9242 2.08169 73.8996 1.92856 73.861 1.92494C73.8152 1.92065 73.7498 2.12584 73.5838 2.58721C73.0046 4.19767 72.3493 4.9663 70.4402 6.27453C68.8555 7.36039 68.3703 8.14721 67.9086 10.38C67.4833 12.4373 67.2314 12.8639 66.0605 13.509C64.934 14.1298 64.4303 15.1255 64.578 16.44C64.6139 16.7598 64.6393 16.9032 64.5836 16.9496C64.5328 16.992 64.4143 16.9537 64.1747 16.8952C61.1132 16.1482 59.4361 16.2034 57.8193 17.1045C57.682 17.181 57.5917 17.238 57.5357 17.2143C57.4235 17.1668 57.4488 16.7957 57.5097 15.6096C57.5543 14.7416 57.5788 13.9957 57.5642 13.952C57.5476 13.9021 57.2256 14.0697 56.6963 14.4041C56.2335 14.6964 55.1985 15.3487 54.3963 15.8537C53.5941 16.3587 52.6959 16.9258 52.4003 17.1138C52.1047 17.3019 51.8549 17.4449 51.8451 17.4315C51.8352 17.4181 51.6709 17.1742 51.4799 16.8894C50.837 15.9311 50.6184 15.6626 49.8968 14.9447C48.383 13.4387 46.8331 12.6528 43.5707 11.7371C43.0538 11.592 42.1641 11.3424 41.5936 11.1824C38.8829 10.4222 38.1248 9.91415 37.538 8.46444C37.3292 7.94866 36.8404 7.08496 36.7573 7.08496C36.7349 7.08496 36.4429 7.36446 36.1084 7.70604C34.0951 9.76206 32.7585 10.4471 29.2246 11.2338C26.5193 11.8361 26.1041 11.9592 24.9663 12.4962C22.5082 13.6565 20.7483 15.5275 20.3239 17.4314L20.2146 17.9218L20.3929 18.6514C20.4909 19.0527 20.5839 19.381 20.5994 19.381C20.6988 19.381 20.9843 19.1257 21.1136 18.9213C21.1977 18.7882 21.3218 18.6618 21.3894 18.6404C21.4908 18.6083 21.5186 18.5169 21.549 18.1164C21.5881 17.5997 21.7216 17.1695 21.9646 16.7775C22.0468 16.6447 22.1141 16.519 22.1141 16.4981C22.1141 16.4772 22.1944 16.353 22.2924 16.2222C23.5711 14.5153 25.6615 13.3208 28.3696 12.7495C28.6548 12.6893 29.2236 12.5667 29.6336 12.4772C30.0437 12.3875 30.452 12.301 30.5412 12.2849C31.4997 12.1115 33.0458 11.4978 33.6322 11.058C33.7457 10.9728 33.8546 10.9032 33.8742 10.9032C34.0971 10.9032 35.8412 9.26394 36.2998 8.62332C36.5312 8.30006 36.5448 8.30758 36.7055 8.84847C37.3363 10.9721 38.1769 11.6245 41.366 12.4654C44.7137 13.3483 45.4714 13.5974 46.737 14.231C47.9529 14.8398 48.7295 15.3848 49.4793 16.1553C49.961 16.6504 49.971 16.6561 49.9999 16.4528C50.0231 16.2909 50.8102 18.3626 50.9954 19.0729L51.1091 19.509L51.4077 19.2969C51.5718 19.1802 52.0999 18.841 52.5812 18.5432C53.0625 18.2453 53.7 17.8439 53.9976 17.6512C54.2954 17.4584 54.7329 17.1826 54.97 17.0383C55.2071 16.8939 55.5554 16.674 55.7441 16.5495C55.9327 16.425 56.1043 16.3403 56.1253 16.3613C56.1595 16.3954 56.0746 18.4364 55.9775 19.9149C55.9338 20.5791 55.9407 20.5851 56.2361 20.1414C56.4228 19.861 56.8365 19.4148 57.3469 18.9433C57.7238 18.5953 58.9572 17.9779 59.647 17.7921C60.8437 17.4698 63.6442 17.8864 64.7297 18.5483C65.1993 18.8346 65.7145 19.2857 66.0078 19.6675C66.1466 19.848 66.2887 20.0306 66.3236 20.0732C66.4618 20.2413 66.75 20.9455 66.8749 21.4195C67.6398 24.3245 66.92 27.728 65.2453 29.1247C62.2375 31.6333 58.0228 31.0311 55.8742 27.7856C55.6049 27.3787 55.5657 27.3432 55.5365 27.4788C55.5047 27.6266 55.239 29.9174 55.239 30.0436C55.239 30.1037 54.7565 30.5162 53.727 31.3361C53.448 31.5582 53.0656 31.8715 52.8773 32.0321C52.689 32.1927 52.5161 32.3241 52.4932 32.3241C52.4703 32.3241 52.4516 29.6613 52.4516 26.4067V20.4893L51.2523 20.5135L51.213 21.3548C51.1914 21.8175 51.1515 22.2835 51.1244 22.3903C50.1989 26.0354 45.9131 29.8502 41.4964 30.9599C38.5736 31.6943 36.6592 31.5448 33.2638 30.3174C32.2171 29.939 31.4569 29.7355 31.0903 29.7355C31.04 29.7355 30.9993 29.7344 30.9595 29.7395C30.7575 29.7651 30.5756 29.9486 29.2629 31.2335C28.4369 32.0421 28.3374 32.1204 28.3056 31.9873C28.2948 31.9421 28.268 31.8257 28.2347 31.6795C28.2078 31.5614 28.1766 31.4239 28.1461 31.2887C28.0779 30.9861 27.9169 30.2804 27.7884 29.7204C27.2734 27.4758 27.4048 25.5926 28.2255 23.4581C28.6427 22.373 28.8402 21.9524 30.1668 19.3243C30.9461 17.7804 31.568 16.5016 31.5489 16.4825C31.445 16.3788 29.9157 16.4956 29.1151 16.6683C27.9147 16.9273 26.4307 17.5823 25.6314 18.206C24.8747 18.7965 25.2894 19.3361 27.4296 20.5459C28.0179 20.8784 28.5576 21.1917 28.6289 21.2421C28.8195 21.3769 25.3399 21.3098 24.6441 21.1653C23.956 21.0223 23.3625 20.8186 23.0045 20.6027C22.6263 20.3747 22.6083 20.3745 22.2349 20.5949C21.4462 21.0605 21.4258 21.1379 21.9904 21.5206C23.0129 22.2139 24.6692 22.6168 26.4966 22.6168C26.8315 22.6168 27.1055 22.63 27.1055 22.6462C27.1055 22.6623 26.9763 23.0636 26.8184 23.5379C26.096 25.7074 25.9732 27.6646 26.4343 29.6584C26.5223 30.039 26.6812 30.7284 26.7874 31.1905C27.0699 32.419 27.6004 33.942 27.7458 33.942C27.7796 33.942 27.9775 33.8012 28.1857 33.6289C28.3938 33.4567 28.8266 33.117 29.1475 32.8741C29.9883 32.2376 30.5235 31.8034 30.9301 31.4282C31.0909 31.2799 31.1882 31.1861 31.3042 31.1466C31.5038 31.0787 31.7585 31.1718 32.4859 31.4252C36.3091 32.7568 37.5668 32.934 40.2971 32.5255C44.3053 31.9258 48.3206 29.486 50.6689 26.2233L51.1227 25.5929L51.1394 29.6381C51.1486 31.8629 51.1727 33.6832 51.193 33.6832C51.2133 33.6832 51.4975 33.5549 51.8245 33.3982C52.1516 33.2414 52.8716 32.8967 53.4245 32.6323C55.1542 31.8049 56.467 30.9396 56.4693 30.6254C56.4711 30.387 56.5239 30.398 57.0363 30.7433C59.6327 32.4934 63.0799 32.4 65.5786 30.5119C65.8186 30.3306 66.0206 30.1909 66.0275 30.2015C66.0313 30.2074 66.0632 30.258 66.1102 30.3324C66.1475 30.3915 66.1943 30.4657 66.2439 30.5445C66.3561 30.7224 66.6606 31.0758 66.9207 31.3298L67.3934 31.7915L69.3382 31.8331C70.4077 31.856 71.91 31.9093 72.6766 31.9516C73.4431 31.9939 75.5142 32.0295 77.2791 32.0307C82.4661 32.0343 83.479 31.8662 84.5681 30.8212L85.0222 30.3854L85.2183 30.5717C87.4982 32.7371 93.3278 32.5136 95.6295 30.1727L96.0188 29.7766L96.5183 30.262C97.9545 31.6576 99.6334 32.2304 102.269 32.2241C105.336 32.2167 107.218 31.0015 108.182 28.405C108.829 26.6644 108.116 24.3264 106.654 23.3934C106.461 23.2699 106.367 23.2178 106.345 23.1444C106.323 23.0713 106.372 22.977 106.463 22.7703C107.097 21.3286 107.037 19.5684 106.312 18.3737C104.697 15.7142 100.484 15.0062 97.3851 16.8738L96.9743 17.1213L96.1204 16.8648C89.8848 14.9918 85.6235 15.6113 84.1386 18.6069C83.4064 20.0839 83.0139 21.4966 82.851 23.241C82.6506 25.3851 82.3289 25.8788 81.2739 25.6601L80.9047 25.5836L80.942 25.1194C80.988 24.5481 81.4277 17.0649 81.4279 16.8501C81.428 16.7284 81.5035 16.6559 81.7807 16.5113C83.6718 15.5248 83.7298 12.9844 81.8937 11.5628C80.5228 10.5013 79.6098 9.0788 79.2822 7.49352L79.1995 7.09318L78.8972 7.34583C78.3212 7.82738 77.9594 7.81943 77.2355 7.3094ZM42.0474 13.2336C38.1272 12.1943 37.148 11.617 36.638 10.0443C36.5944 9.91007 36.5392 9.60428 36.5154 9.36478L36.472 8.92937L36.3277 9.32084C35.6227 11.2334 33.4921 12.3596 28.9854 13.2016C28.5092 13.2906 26.9941 13.6864 26.6842 13.8028C25.9594 14.075 25.6056 14.246 24.7734 14.7259C22.8102 15.8583 21.6565 17.9181 22.2922 19.1561C22.7763 20.0987 24.5734 20.8227 26.1929 20.7275L26.5315 20.7076L26.1216 20.4391C24.5309 19.3966 24.2928 18.5446 25.3605 17.7158C26.8602 16.5518 29.2488 15.8306 31.3798 15.8985C31.965 15.9172 32.2623 15.9096 32.341 16.0368C32.4266 16.1749 32.2543 16.4722 31.9133 17.135C31.1371 18.6437 29.5445 21.8163 29.3727 22.1961C29.1185 22.758 28.7786 23.5526 28.7637 23.6199C28.7559 23.6555 28.6542 23.9758 28.5377 24.3317C28.0792 25.7337 27.9382 27.0334 28.106 28.3118C28.2061 29.0744 28.6008 30.8615 28.6883 30.9489C28.7104 30.971 29.1291 30.5931 29.6187 30.1091C30.8409 28.9009 30.8539 28.9 33.6188 29.8323C36.2586 30.7225 37.0438 30.8799 38.5145 30.8138C42.2094 30.6477 45.3597 29.1938 48.0278 26.4232C50.4287 23.9301 51.1151 21.81 50.4055 19.0791C50.1343 18.0355 50.0953 18.0959 49.9886 19.7237C49.8505 21.8316 49.1762 22.772 46.423 24.6971C42.6132 27.361 37.7717 28.2173 31.6432 27.3113C30.9115 27.2031 30.7111 27.1775 30.5996 27.0645C30.5524 27.0167 30.5211 26.9533 30.4723 26.8613L30.3244 26.583L30.6185 25.8456C30.7802 25.4401 31.5767 23.4629 32.3884 21.4519C33.2001 19.4408 34.0142 17.4179 34.1974 16.9565L34.5304 16.1175L35.0153 15.9696C39.2724 14.6704 45.08 15.6942 47.7899 18.2213C47.8938 18.3182 47.9787 18.3851 47.9787 18.3699C47.9787 18.3193 48.4593 18.7596 48.9963 19.3021L49.5277 19.839L49.5653 19.6261C49.586 19.5091 49.6599 18.9964 49.7296 18.4869L49.8564 17.5605L49.6307 17.225C49.033 16.3366 47.7905 15.3643 46.3906 14.6893C45.2893 14.1584 44.3558 13.8455 42.0474 13.2336ZM14.8603 12.0677C14.414 12.067 14.1495 11.9499 13.9766 11.6764C13.7572 11.3294 13.6666 11.353 13.4017 11.8259C13.2769 12.0487 13.0264 12.3847 12.845 12.5725C12.4 13.0335 12.3717 13.1273 12.3795 14.1203C12.3871 15.0812 12.3771 15.1035 12.0405 14.8751C11.6124 14.5846 11.5252 14.8221 11.6263 16.0042C11.8057 18.1009 12.4505 18.8365 15.4344 20.348C16.8581 21.0692 17.3586 21.2267 17.1427 20.8856C16.8726 20.4592 16.6289 20.1817 16.548 20.2086C16.4889 20.2282 16.4719 20.1987 16.4952 20.1167C16.5141 20.0502 16.5485 19.8939 16.5717 19.7693C16.647 19.364 16.6738 19.3163 16.8257 19.3163C17.2579 19.3163 17.8948 19.7235 18.1875 20.1871C18.3663 20.4704 18.3917 20.4864 18.6322 20.4681C19.1747 20.427 19.3305 19.457 19.001 18.1719C18.493 16.1904 18.2633 15.7484 17.5551 15.3901C17.1358 15.1781 16.7479 14.7769 16.488 14.2868C16.222 13.785 16.193 13.7681 15.9496 13.9725C15.4777 14.3689 15.2355 13.9704 15.1359 12.6343L15.0938 12.0681L14.8603 12.0677ZM49.2575 20.4177C47.9668 18.578 44.9239 16.8205 41.9621 16.204C40.089 15.8141 37.7225 15.8824 35.6573 16.3861L34.9716 16.5533L34.6216 17.4332C34.4292 17.9172 34.2389 18.4005 34.1989 18.5073C34.1588 18.6141 33.8999 19.2548 33.6236 19.9311C33.3473 20.6073 32.7296 22.1362 32.251 23.3286C31.7724 24.521 31.3535 25.5549 31.3202 25.6261C31.1207 26.0517 30.9477 26.5677 30.9948 26.5967C31.269 26.7658 33.7643 27.0235 35.5212 27.064C38.9776 27.1437 42.1863 26.4904 44.4675 25.2425C47.3694 23.6551 49.8064 21.2002 49.2575 20.4177ZM55.3041 21.9607C55.3819 20.4529 55.4647 18.8159 55.488 18.3231C55.5115 17.8303 55.5161 17.4185 55.4983 17.4079C55.4805 17.3974 55.019 17.6746 54.4728 18.0241C53.9266 18.3735 53.0446 18.9309 52.5127 19.2629C51.9808 19.5948 51.5453 19.8881 51.5448 19.9149C51.5444 19.9416 51.8795 19.9634 52.2895 19.9634H53.035V25.529C53.035 28.59 53.0572 31.0945 53.0844 31.0945C53.1115 31.0945 53.3532 30.9126 53.6215 30.6901C53.8898 30.4676 54.2458 30.1837 54.4128 30.0591C54.6533 29.8797 54.7172 29.7922 54.7201 29.6384C54.7271 29.2784 55.1474 25.8577 55.1899 25.8153C55.3818 25.6237 55.7103 25.8961 55.8234 26.3406C56.1662 27.6883 57.6382 29.1766 59.2581 29.8131C61.6208 30.7416 64.8601 29.5342 65.9298 27.3264C66.8013 25.5277 66.797 22.1857 65.9212 20.5327C64.9256 18.6536 62.5996 17.9993 60.9327 19.1294L60.5226 19.4074L61.0519 19.5099C63.5015 19.9845 64.6973 22.3336 63.9621 25.227C63.6125 26.6028 62.957 27.2435 61.724 27.414C57.6605 27.9762 57.2542 20.5602 61.2393 18.5678L61.7396 18.3177L61.5198 18.2599C60.815 18.0746 58.6206 18.5605 58.2209 18.9905C58.2031 19.0097 58.024 19.1501 57.8229 19.3025C56.4284 20.3601 55.8595 21.6564 55.7195 24.0953L55.6736 24.8942L55.4746 24.8545C55.4143 24.8424 55.3655 24.8342 55.3269 24.8099C55.1595 24.7044 55.1839 24.296 55.3041 21.9607ZM63.5055 24.6486C63.9147 22.3563 63.0569 20.67 61.2072 20.1308C60.5716 19.9455 60.2965 19.9872 60.0584 20.3052C58.1527 22.8501 58.9324 26.8569 61.3324 26.8527C62.6146 26.8504 63.2225 26.2337 63.5055 24.6486ZM17.9095 22.238C17.1788 22.6812 16.2513 22.4275 14.5503 21.3188C13.6738 20.7476 13.2869 20.9601 12.1444 22.6411C11.5758 23.4774 11.196 23.8154 10.3703 24.2193C10.0018 24.3996 9.16072 24.809 8.50114 25.129C4.86349 26.8942 3.30591 28.9141 3.04376 32.206C2.88105 34.2492 3.25944 34.823 5.62134 36.1146C7.31448 37.0406 7.67256 37.3014 8.18227 37.9797C8.6173 38.5587 8.7192 38.6918 8.79142 38.7753C10.7061 40.9906 11.9526 41.8389 13.4415 41.94C14.5498 42.0153 15.2406 41.8435 16.1503 41.2663C16.3464 41.1418 16.6723 40.9552 16.8745 40.8514C18.3532 40.0928 19.911 36.8123 19.9096 34.4598C19.9091 33.7728 19.8078 33.2832 19.3546 31.7784C18.774 29.851 18.7692 29.5733 19.2905 28.1217C20.0562 25.9899 20.2093 25.5774 20.3967 25.1401C20.8803 24.0115 20.9724 23.1449 20.7251 22.0505C20.6563 21.7462 20.6348 21.5945 20.5593 21.5597C20.4793 21.5228 20.3385 21.6174 20.0161 21.8008C19.4241 22.1376 19.0918 22.2038 18.654 22.0723L18.3388 21.9776L17.9095 22.238ZM25.8577 22.9807C24.8099 22.9178 23.9241 22.7644 23.2038 22.5211C22.8583 22.4043 22.3696 22.1903 22.118 22.0454C21.8663 21.9006 21.6614 21.8024 21.6626 21.8273C21.6638 21.8522 21.7069 22.0618 21.7584 22.2932C21.9258 23.0463 21.9523 23.9522 21.8238 24.5303C21.6595 25.2699 21.5599 25.5167 20.7783 27.1218C19.8967 28.9321 19.8902 29.2742 20.6922 31.6202C20.9066 32.2475 21.1342 33.0338 21.198 33.3676L21.3139 33.9744L27.2986 34.0081L27.1608 33.6676C26.746 32.6437 26.6934 32.4641 26.2571 30.581C25.9044 29.0589 25.8778 28.9082 25.8144 28.0738C25.7116 26.7202 25.9393 24.956 26.3892 23.6199C26.4971 23.2995 26.5857 23.0345 26.5862 23.0309C26.5866 23.0274 26.2588 23.0048 25.8577 22.9807ZM50.7662 34.0068V30.3827C50.7662 28.3894 50.7578 26.7586 50.7476 26.7586C50.7375 26.7586 50.6426 26.8706 50.537 27.0075C48.371 29.8144 44.7065 32.0576 41.1235 32.77C38.2562 33.3401 36.549 33.1922 33.2782 32.0906L31.4451 31.4732L31.0948 31.7927C30.9023 31.9685 30.234 32.5091 29.61 32.9941C28.9859 33.4792 28.4571 33.9054 28.4348 33.9414C28.4076 33.9853 32.0648 34.0068 39.5803 34.0068H50.7662ZM108.674 38.1152C107.304 37.7464 106.681 37.0751 106.26 35.5114L106.185 35.2364H21.0872L21.0424 35.6732C20.7723 38.3075 19.3546 40.917 16.9606 42.1941C16.7111 42.3273 16.4777 42.4575 16.442 42.4836C16.4064 42.5096 16.1803 42.6003 15.9397 42.6851L15.5021 42.8393V47.0665L15.8424 47.1459C17.3235 47.4918 18.0729 48.2784 18.445 49.8783L18.4864 50.0563H106.174L106.407 49.3397C106.813 48.0945 107.379 47.5619 108.686 47.1969L109.205 47.0521L109.18 38.2515L108.674 38.1152Z" fill="#4F4C46"/>
<path d="M13.9768 11.6764C14.1498 11.9499 14.4142 12.0671 14.8606 12.0677L15.094 12.0681L15.1361 12.6344C15.2357 13.9704 15.478 14.3689 15.9498 13.9725C16.1932 13.7681 16.2222 13.785 16.4882 14.2868C16.7481 14.7769 17.1361 15.1781 17.5553 15.3901C18.2635 15.7484 18.4932 16.1904 19.0012 18.172C19.3307 19.457 19.1749 20.427 18.6325 20.4681C18.3919 20.4864 18.3666 20.4704 18.1877 20.1871C17.895 19.7235 17.2581 19.3163 16.8259 19.3163C16.674 19.3163 16.6472 19.364 16.5719 19.7693C16.5488 19.8939 16.5144 20.0502 16.4954 20.1167C16.4722 20.1987 16.4891 20.2282 16.5483 20.2086C16.6291 20.1817 16.8728 20.4592 17.1429 20.8856C17.3588 21.2267 16.8583 21.0692 15.4347 20.348C12.4507 18.8365 11.8059 18.1009 11.6265 16.0042C11.5255 14.8221 11.6126 14.5846 12.0407 14.8751C12.3774 15.1035 12.3874 15.0812 12.3798 14.1203C12.3719 13.1274 12.4002 13.0335 12.8452 12.5725C13.0267 12.3847 13.2771 12.0487 13.4019 11.8259C13.6668 11.353 13.7574 11.3294 13.9768 11.6764Z" fill="#C2B795"/>
<path fill-rule="evenodd" clip-rule="evenodd" d="M14.5501 21.3189C16.2512 22.4276 17.1786 22.6813 17.9094 22.2381L18.3386 21.9777L18.6538 22.0724C19.0916 22.2039 19.424 22.1377 20.0159 21.8009C20.6424 21.4445 20.5832 21.4236 20.7249 22.0506C20.9722 23.145 20.8801 24.0116 20.3965 25.1402C20.2091 25.5775 20.0561 25.99 19.2904 28.1218C18.769 29.5733 18.7738 29.8511 19.3544 31.7785C19.8076 33.2833 19.909 33.7729 19.9094 34.4598C19.9108 36.8123 18.353 40.0929 16.8743 40.8515C16.6721 40.9552 16.3463 41.1419 16.1502 41.2663C15.2404 41.8436 14.5497 42.0154 13.4413 41.9401C11.9524 41.8389 10.706 40.9906 8.79126 38.7754C8.71904 38.6919 8.61714 38.5588 8.18211 37.9798C7.6724 37.3015 7.31431 37.0407 5.62118 36.1147C3.25927 34.823 2.88089 34.2493 3.0436 32.2061C3.30575 28.9142 4.86333 26.8943 8.50097 25.1291C9.16056 24.809 10.0016 24.3997 10.3701 24.2194C11.1958 23.8155 11.5756 23.4775 12.1442 22.6412C13.2868 20.9602 13.6736 20.7477 14.5501 21.3189ZM3.4752 31.7958C3.21856 29.6597 5.83251 26.7728 9.62541 25.0032C10.1317 24.767 10.6402 24.9153 10.6402 25.2992C10.6402 25.6113 10.3292 25.8469 8.63062 26.8223C6.99921 27.7591 6.23156 28.5112 5.69035 29.7032C5.59337 29.9168 5.48291 30.147 5.44493 30.2148C5.40694 30.2826 5.3674 30.3991 5.35703 30.4737C5.34672 30.5482 5.28767 30.8131 5.22576 31.0623C5.16158 31.3205 5.09592 31.9186 5.07303 32.4537L5.03291 33.392L4.83844 33.3713C4.10859 33.2933 3.58203 32.6848 3.4752 31.7958ZM7.43197 35.5822C7.56777 35.1833 7.74494 34.9495 7.98239 34.8556C8.56171 34.6267 10.0932 35.0706 10.2473 35.5121C10.5357 36.338 10.1039 37.3478 9.48882 37.2861C9.07875 37.245 8.88233 37.1778 8.93309 37.0959C8.95688 37.0574 8.94353 37.0478 8.90184 37.0735C8.79942 37.1367 8.42137 36.9306 8.47647 36.8416C8.50227 36.7999 8.4917 36.7877 8.45138 36.8126C8.41307 36.8362 8.34293 36.8187 8.29555 36.7738C8.2481 36.7288 8.04883 36.5612 7.85274 36.4013C7.26414 35.9215 7.29558 35.9827 7.43197 35.5822Z" fill="#F5F3ED"/>
<path fill-rule="evenodd" clip-rule="evenodd" d="M41.962 16.204C44.9238 16.8205 47.9666 18.578 49.2573 20.4177C49.8063 21.2002 47.3692 23.6551 44.4673 25.2425C42.1861 26.4904 38.9774 27.1437 35.521 27.064C33.7642 27.0235 31.2688 26.7658 30.9946 26.5967C30.9475 26.5677 31.1205 26.0518 31.3201 25.6261C31.3534 25.5549 31.7723 24.521 32.2509 23.3286C32.7295 22.1363 33.3471 20.6073 33.6234 19.9311C33.8997 19.2548 34.1586 18.6141 34.1987 18.5073C34.2387 18.4005 34.429 17.9172 34.6215 17.4332L34.9714 16.5534L35.6571 16.3861C37.7224 15.8824 40.0888 15.8141 41.962 16.204ZM35.9478 17.6504C36.0045 17.5939 37.217 17.4222 37.8985 17.3742C42.3952 17.0578 46.3356 18.1682 47.0054 19.9405C47.7788 21.987 45.4068 23.9957 40.9452 25.0724C38.0128 25.7801 35.3773 25.9584 33.0569 25.6063L32.761 25.5613L33.6933 23.2316C34.2061 21.9502 34.6535 20.8436 34.6876 20.7724C34.7216 20.7012 35.0145 19.9741 35.3386 19.1567C35.6627 18.3393 35.9368 17.6614 35.9478 17.6504Z" fill="#C2B795"/>
<path fill-rule="evenodd" clip-rule="evenodd" d="M61.207 20.1308C63.0567 20.6701 63.9145 22.3563 63.5053 24.6487C63.2224 26.2337 62.6144 26.8504 61.3322 26.8527C58.9322 26.8569 58.1526 22.8501 60.0582 20.3052C60.2963 19.9872 60.5714 19.9455 61.207 20.1308ZM61.115 25.5296C60.2385 25.2294 59.9304 22.3391 60.6883 21.5269C60.8465 21.3574 60.9611 21.354 61.3024 21.5087C62.9161 22.2406 62.7371 26.0849 61.115 25.5296Z" fill="#C2B795"/>
<path d="M91.7994 24.365C91.8172 24.3833 92.0725 24.6131 92.3666 24.8757C92.9857 25.4286 93.0009 25.4885 92.6259 25.8955C91.3237 27.3081 88.0675 27.3284 87.8039 25.9256C87.7651 25.7191 87.8585 25.0411 87.9365 24.9632C87.9526 24.9471 88.3302 25.0707 88.7755 25.238L89.5852 25.5421L89.8658 25.3416C90.0201 25.2314 90.4511 24.9088 90.8235 24.6246C91.5456 24.074 91.5218 24.0803 91.7994 24.365Z" fill="#C2B795"/>
<path fill-rule="evenodd" clip-rule="evenodd" d="M74.2971 3.45099C74.8005 4.86813 75.9929 6.43407 77.2352 7.30941C77.9591 7.81944 78.3209 7.8274 78.8969 7.34585L79.1992 7.0932L79.2819 7.49353C79.6095 9.07881 80.5225 10.5013 81.8934 11.5628C83.7295 12.9844 83.6715 15.5248 81.7804 16.5114C81.5032 16.6559 81.4277 16.7284 81.4276 16.8501C81.4274 17.0649 80.9877 24.5481 80.9417 25.1195L80.9044 25.5836L81.2736 25.6601C82.3286 25.8788 82.6504 25.3851 82.8507 23.241C83.0136 21.4966 83.4061 20.0839 84.1383 18.6069C85.6232 15.6114 89.8845 14.9918 96.1201 16.8648L96.9741 17.1213L97.3848 16.8738C100.483 15.0063 104.697 15.7142 106.311 18.3737C107.037 19.5684 107.097 21.3286 106.462 22.7703C106.28 23.185 106.268 23.1471 106.654 23.3934C108.116 24.3264 108.829 26.6644 108.182 28.405C107.218 31.0015 105.336 32.2167 102.268 32.2241C99.6331 32.2304 97.9542 31.6576 96.518 30.262L96.0186 29.7766L95.6292 30.1727C93.3275 32.5136 87.4979 32.7371 85.218 30.5717L85.0219 30.3855L84.5678 30.8212C83.4787 31.8662 82.4658 32.0343 77.2787 32.0307C75.5139 32.0295 73.4428 31.9939 72.6763 31.9517C71.9097 31.9093 70.4074 31.856 69.3379 31.8331L67.3931 31.7915L66.9204 31.3298C66.6603 31.0759 66.3558 30.7224 66.2436 30.5445C66.1315 30.3665 66.034 30.2122 66.0272 30.2015C66.0203 30.1909 65.8183 30.3306 65.5783 30.5119C63.0796 32.4001 59.6324 32.4934 57.036 30.7433C56.5236 30.398 56.4708 30.387 56.4691 30.6254C56.4667 30.9396 55.1539 31.8049 53.4242 32.6323C52.8713 32.8968 52.1513 33.2414 51.8242 33.3982C51.4972 33.5549 51.213 33.6832 51.1927 33.6832C51.1724 33.6832 51.1483 31.8629 51.1391 29.6381L51.1224 25.5929L50.6686 26.2233C48.3203 29.486 44.305 31.9258 40.2969 32.5256C37.5665 32.934 36.3088 32.7568 32.4856 31.4252C31.3356 31.0247 31.3673 31.0246 30.9298 31.4282C30.5233 31.8035 29.988 32.2376 29.1472 32.8741C28.8263 33.1171 28.3935 33.4567 28.1854 33.6289C27.9772 33.8012 27.7793 33.942 27.7455 33.942C27.6001 33.942 27.0696 32.419 26.7872 31.1905C26.6809 30.7284 26.522 30.039 26.434 29.6584C25.9729 27.6646 26.0957 25.7074 26.8181 23.5379C26.976 23.0636 27.1052 22.6623 27.1052 22.6462C27.1052 22.63 26.8312 22.6168 26.4963 22.6168C24.6689 22.6168 23.0127 22.2139 21.9901 21.5206C21.4255 21.1379 21.4459 21.0605 22.2346 20.5949C22.608 20.3745 22.6261 20.3747 23.0042 20.6027C23.3623 20.8186 23.9557 21.0223 24.6438 21.1653C25.3396 21.3098 28.8192 21.3769 28.6286 21.2421C28.5573 21.1917 28.0176 20.8784 27.4294 20.5459C25.2891 19.3361 24.8744 18.7965 25.6311 18.206C26.4304 17.5823 27.9144 16.9273 29.1148 16.6683C29.9154 16.4956 31.4447 16.3788 31.5486 16.4825C31.5677 16.5016 30.9458 17.7804 30.1665 19.3243C28.8399 21.9524 28.6424 22.3731 28.2252 23.4581C27.4045 25.5926 27.2731 27.4758 27.7881 29.7204C27.9166 30.2804 28.0776 30.9862 28.1458 31.2887C28.214 31.5912 28.2858 31.9056 28.3053 31.9873C28.3371 32.1204 28.4367 32.0421 29.2626 31.2336C30.8345 29.6949 30.785 29.7355 31.09 29.7355C31.4566 29.7355 32.2168 29.939 33.2635 30.3174C36.6589 31.5448 38.5733 31.6943 41.4962 30.9599C45.9128 29.8502 50.1986 26.0355 51.1241 22.3903C51.1512 22.2835 51.1911 21.8175 51.2127 21.3548L51.252 20.5135L51.8517 20.5014L52.4513 20.4893V26.4067C52.4513 29.6613 52.47 32.3242 52.4929 32.3242C52.5158 32.3242 52.6887 32.1927 52.877 32.0321C53.0653 31.8715 53.4477 31.5582 53.7267 31.3361C54.7562 30.5163 55.2387 30.1038 55.2387 30.0436C55.2387 29.9174 55.5044 27.6266 55.5362 27.4788C55.5654 27.3432 55.6046 27.3787 55.8739 27.7856C58.0226 31.0311 62.2372 31.6333 65.245 29.1247C66.9197 27.728 67.6395 24.3245 66.8746 21.4195C66.7498 20.9455 66.4615 20.2413 66.3233 20.0732C66.2884 20.0306 66.1463 19.848 66.0075 19.6675C65.7142 19.2857 65.199 18.8346 64.7294 18.5483C63.6439 17.8864 60.8434 17.4698 59.6467 17.7921C58.9569 17.9779 57.7235 18.5953 57.3466 18.9433C56.8362 19.4148 56.4225 19.861 56.2358 20.1414C55.9404 20.5852 55.9335 20.5791 55.9772 19.9149C56.0743 18.4365 56.1593 16.3954 56.125 16.3613C56.104 16.3403 55.9324 16.425 55.7438 16.5495C55.5551 16.674 55.2068 16.894 54.9697 17.0383C54.7326 17.1827 54.2951 17.4584 53.9973 17.6512C53.6997 17.8439 53.0622 18.2454 52.5809 18.5432C52.0996 18.8411 51.5715 19.1802 51.4074 19.2969L51.1089 19.5091L50.9951 19.0729C50.8099 18.3626 50.0228 16.2909 49.9997 16.4529C49.9707 16.6561 49.9607 16.6504 49.479 16.1553C48.7292 15.3848 47.9526 14.8398 46.7367 14.231C45.4711 13.5974 44.7134 13.3483 41.3657 12.4655C38.1766 11.6245 37.336 10.9721 36.7052 8.84848C36.5445 8.30759 36.5309 8.30008 36.2995 8.62334C35.8409 9.26396 34.0969 10.9032 33.8739 10.9032C33.8543 10.9032 33.7454 10.9728 33.6319 11.058C33.0455 11.4978 31.4994 12.1115 30.5409 12.2849C30.4518 12.301 30.0434 12.3875 29.6334 12.4772C29.2234 12.5667 28.6545 12.6893 28.3693 12.7495C25.6612 13.3208 23.5709 14.5153 22.2921 16.2222C22.1941 16.3531 22.1138 16.4773 22.1138 16.4981C22.1138 16.519 22.0465 16.6447 21.9643 16.7775C21.7213 17.1695 21.5878 17.5997 21.5487 18.1164C21.5183 18.5169 21.4905 18.6083 21.3891 18.6404C21.3215 18.6619 21.1974 18.7883 21.1133 18.9213C20.984 19.1257 20.6985 19.381 20.5991 19.381C20.5836 19.381 20.4906 19.0527 20.3926 18.6514L20.2144 17.9218L20.3236 17.4314C20.748 15.5275 22.5079 13.6565 24.9661 12.4963C26.1038 11.9592 26.519 11.8361 29.2243 11.2338C32.7582 10.4471 34.0948 9.76208 36.1081 7.70605C36.4426 7.36448 36.7346 7.08498 36.757 7.08498C36.8401 7.08498 37.3289 7.94867 37.5377 8.46446C38.1245 9.91416 38.8826 10.4222 41.5933 11.1824C42.1638 11.3424 43.0535 11.592 43.5704 11.7371C46.8328 12.6529 48.3827 13.4387 49.8965 14.9447C50.6181 15.6626 50.8367 15.9311 51.4796 16.8894C51.6706 17.1742 51.8349 17.4181 51.8448 17.4315C51.8546 17.4449 52.1044 17.3019 52.4 17.1139C52.6956 16.9258 53.5938 16.3587 54.396 15.8537C55.1982 15.3487 56.2332 14.6964 56.696 14.4041C57.2254 14.0698 57.5473 13.9021 57.5639 13.952C57.5785 13.9957 57.554 14.7416 57.5094 15.6097C57.4181 17.3881 57.4069 17.3342 57.819 17.1045C59.4358 16.2034 61.1129 16.1482 64.1744 16.8953C64.6766 17.0178 64.6464 17.0518 64.5777 16.44C64.43 15.1255 64.9337 14.1298 66.0602 13.5091C67.2311 12.8639 67.483 12.4373 67.9084 10.38C68.37 8.14722 68.8552 7.36041 70.4399 6.27454C72.349 4.96631 73.0043 4.19768 73.5835 2.58723C73.8896 1.73608 73.8539 1.75679 73.9831 2.35619C74.0464 2.65032 74.1878 3.143 74.2971 3.45099ZM73.2282 5.70459C73.325 5.26665 73.6615 3.84187 73.8192 3.20203C73.8746 2.97714 73.8767 2.98782 74.1004 4.69049C74.3829 6.83906 74.4628 6.99457 75.6645 7.73608C76.776 8.42187 77.1243 8.82525 77.1949 9.50878C77.3045 10.569 76.5697 11.3484 75.3502 11.4655L74.9451 11.5044L74.9447 11.7377C74.9442 12.0276 74.7666 16.2139 74.7193 17.0512C74.7001 17.3894 74.6415 18.8018 74.589 20.1899C74.5366 21.5781 74.4797 22.9177 74.4627 23.1669C74.4458 23.416 74.4121 24.1914 74.3879 24.8901L74.3439 26.1602L74.5888 26.2409C75.1466 26.4247 76.5805 26.0505 76.7212 25.6844C76.91 25.1933 77.0898 21.5578 77.0794 18.4426C77.0696 15.4848 77.0806 15.5883 76.7699 15.5313C75.8762 15.3671 75.4287 14.8247 75.4346 13.9125C75.4401 13.0615 75.8758 12.5566 76.978 12.1239C78.0497 11.7032 78.1836 11.5227 78.608 9.92684C78.7727 9.30706 78.9542 8.63977 79.0111 8.44401L79.1147 8.08807L79.2963 9.54418C79.5501 11.5792 79.539 11.557 80.6837 12.3281C81.7813 13.0675 82.0588 13.5335 81.8849 14.3447C81.7434 15.005 81.3146 15.4047 80.5754 15.5654L80.2094 15.645L80.1706 16.1055C80.1493 16.3587 80.1 17.1483 80.0611 17.8602C80.0222 18.572 79.8957 20.7271 79.7799 22.6491C79.5515 26.4403 79.5445 26.2851 79.9549 26.5437C80.7417 27.0395 81.961 27.0799 82.6835 26.6341C82.9404 26.4755 82.9688 26.4181 83.0248 25.9427C83.0731 25.5324 83.0639 25.533 83.7864 25.8929L84.233 26.1154L84.1912 25.8103C83.9051 23.7265 84.2757 21.396 85.215 19.3726C86.1658 17.3242 89.7998 16.5418 93.7215 17.541C94.3683 17.7059 95.2499 17.9598 95.2883 17.9923C95.2999 18.002 95.0572 18.7917 94.7491 19.7471C94.4409 20.7025 94.1449 21.6219 94.0913 21.7902L93.9938 22.0961L93.6258 21.912C91.3954 20.7957 87.9746 21.2204 87.9746 22.6135C87.9746 22.8752 88.0008 22.8692 88.6874 22.4517C89.3469 22.0506 89.3321 22.0514 89.9518 22.3896C90.1657 22.5063 90.759 22.8118 91.2702 23.0683L92.1996 23.5347L92.0571 23.6861L91.9146 23.8376L92.1973 23.9097C94.693 24.5471 95.5912 25.3867 95.5912 27.0822C95.5912 29.3674 93.5632 30.7016 90.049 30.7286C87.4455 30.7485 85.8537 29.9306 84.9108 28.0886L84.7104 27.697L84.6336 28.0529C84.3804 29.2256 83.6901 30.1283 82.8536 30.3804C81.5972 30.7591 77.715 30.8616 72.7399 30.6475C71.0101 30.573 69.2147 30.5121 68.7502 30.5121H67.9056L67.6756 30.2694C66.944 29.4974 66.8038 28.447 67.134 26.2132C67.2923 25.1417 67.2959 25.0346 67.2959 21.3186V17.5196L66.988 17.4422C66.198 17.2437 65.9132 16.8995 65.8794 16.1023C65.8419 15.2195 66.06 14.9521 67.3398 14.3113C68.3307 13.8151 68.2446 13.9748 68.8945 11.4302C69.1069 10.5984 69.1188 10.62 69.3386 12.2299C69.5762 13.9702 69.4536 13.7673 70.9065 14.8236C71.5947 15.3239 71.8098 16.0196 71.491 16.7133C71.2784 17.1759 70.9663 17.3746 70.2053 17.5321C70.0519 17.5638 70.0316 17.6034 69.9959 17.9402C69.7733 20.0376 69.7997 23.5458 70.056 25.9331C70.103 26.3701 70.1489 26.3754 70.8288 26.0223C71.4651 25.6917 71.6135 25.0126 71.7068 22.002C71.7411 20.8986 71.799 19.3842 71.8356 18.6368C71.9236 16.8397 71.9949 11.9657 71.9376 11.661C71.8938 11.4277 71.8845 11.4209 71.6106 11.4209C70.4674 11.4209 69.6944 10.7136 69.6944 9.66753C69.6944 8.54497 70.0469 8.15376 71.6092 7.54232C72.6166 7.14801 73.0069 6.70503 73.2282 5.70459ZM95.8135 22.7995C96.1761 19.3319 97.2726 17.854 99.9346 17.2444C103.46 16.4373 106.364 18.9078 105.406 21.8982C105.297 22.2372 104.551 23.7202 104.51 23.6791C104.491 23.6599 104.329 23.3475 104.15 22.9849C103.85 22.3787 103.796 22.3091 103.481 22.1215C102.199 21.3592 99.3103 21.656 98.6092 22.6222C97.9874 23.4791 97.9947 25.1028 98.623 25.7006C99.8191 26.8385 103.487 26.8112 103.39 25.665C103.364 25.362 103.214 25.2809 101.762 24.783C101.001 24.5221 100.634 24.3682 100.716 24.3446C100.974 24.2699 102.481 23.9819 103.008 23.9066C105.362 23.5695 107.151 24.915 107.161 27.0303C107.163 27.4083 106.704 28.747 106.522 28.8942C106.5 28.912 106.439 29.0093 106.387 29.1104C106.279 29.3193 105.311 30.2532 105.202 30.2532C105.163 30.2532 105.085 30.294 105.028 30.3439C104.143 31.1279 100.792 31.1276 98.9098 30.3433C96.581 29.373 95.4216 26.5484 95.8135 22.7995ZM27.1459 18.8632C27.0662 18.7862 27.6613 18.497 28.4989 18.2057C28.8911 18.0694 29.2487 17.9577 29.2935 17.9575C29.3414 17.9574 29.2008 18.3043 28.9527 18.7985C28.7205 19.2613 28.5145 19.6398 28.4951 19.6398C28.447 19.6398 27.2169 18.9317 27.1459 18.8632Z" fill="#C2B795"/>
<path d="M36.6378 10.0443C37.1479 11.6169 38.1271 12.1942 42.0472 13.2335C44.3557 13.8455 45.2892 14.1584 46.3904 14.6893C47.7903 15.3642 49.0328 16.3366 49.6305 17.2249L49.8562 17.5605L49.7295 18.4869C49.6598 18.9964 49.5858 19.5091 49.5652 19.6261L49.5276 19.8389L48.9961 19.3021C48.4592 18.7595 47.9786 18.3193 47.9786 18.3699C47.9786 18.385 47.8936 18.3182 47.7898 18.2213C45.0799 15.6941 39.2723 14.6704 35.0152 15.9696L34.5303 16.1175L34.1972 16.9565C34.014 17.4179 33.2 19.4408 32.3882 21.4518C31.5765 23.4629 30.78 25.4401 30.6183 25.8456L30.3243 26.583L30.4721 26.8613C30.6365 27.1707 30.6018 27.1573 31.643 27.3112C37.7716 28.2172 42.6131 27.3609 46.4228 24.6971C49.1761 22.772 49.8503 21.8315 49.9885 19.7237C50.0952 18.0958 50.1342 18.0355 50.4053 19.0791C51.115 21.81 50.4285 23.9301 48.0277 26.4232C45.3595 29.1937 42.2092 30.6477 38.5143 30.8138C37.0436 30.8799 36.2584 30.7225 33.6187 29.8323C30.8537 28.8999 30.8407 28.9008 29.6185 30.1091C29.1289 30.5931 28.7103 30.971 28.6882 30.9489C28.6006 30.8615 28.206 29.0743 28.1059 28.3117C27.938 27.0333 28.079 25.7336 28.5376 24.3317C28.654 23.9758 28.7557 23.6554 28.7636 23.6198C28.7785 23.5526 29.1183 22.758 29.3725 22.1961C29.5444 21.8163 31.137 18.6436 31.9132 17.135C32.5681 15.862 32.6006 15.9374 31.3797 15.8985C29.2486 15.8306 26.8601 16.5518 25.3604 17.7158C24.2926 18.5446 24.5307 19.3965 26.1215 20.439L26.5313 20.7076L26.1927 20.7275C24.5732 20.8227 22.7761 20.0987 22.292 19.1561C21.6563 17.9181 22.81 15.8583 24.7733 14.7259C25.6054 14.2459 25.9592 14.075 26.684 13.8028C26.9939 13.6863 28.509 13.2905 28.9853 13.2016C33.4919 12.3595 35.6225 11.2334 36.3275 9.3208L36.4718 8.92933L36.5152 9.36474C36.5391 9.60426 36.5943 9.91004 36.6378 10.0443Z" fill="#F5F3ED"/>
<path d="M55.4879 18.3231C55.4645 18.8159 55.3817 20.4528 55.304 21.9607C55.1559 24.8351 55.1533 24.7903 55.4744 24.8544L55.6735 24.8941L55.7194 24.0952C55.8593 21.6564 56.4282 20.3601 57.8228 19.3025C58.0239 19.1501 58.2029 19.0097 58.2207 18.9904C58.6205 18.5605 60.8148 18.0745 61.5197 18.2599L61.7394 18.3177L61.2392 18.5678C57.2541 20.5602 57.6604 27.9762 61.7239 27.414C62.9568 27.2435 63.6124 26.6028 63.962 25.227C64.6971 22.3336 63.5013 19.9845 61.0517 19.5099L60.5225 19.4074L60.9326 19.1294C62.5994 17.9993 64.9254 18.6536 65.921 20.5326C66.7968 22.1857 66.8011 25.5277 65.9297 27.3264C64.86 29.5342 61.6207 30.7415 59.2579 29.8131C57.6381 29.1765 56.1661 27.6883 55.8233 26.3406C55.7102 25.8961 55.3816 25.6237 55.1897 25.8153C55.1472 25.8577 54.727 29.2783 54.72 29.6384C54.717 29.7922 54.6531 29.8797 54.4127 30.0591C54.2457 30.1836 53.8896 30.4676 53.6214 30.69C53.3531 30.9125 53.1114 31.0945 53.0842 31.0945C53.0571 31.0945 53.0348 28.59 53.0348 25.5289V19.9634H52.2894C51.8794 19.9634 51.5442 19.9416 51.5447 19.9148C51.5451 19.8881 51.9807 19.5948 52.5126 19.2628C53.0444 18.9309 53.9265 18.3734 54.4726 18.024C55.0188 17.6746 55.4803 17.3973 55.4981 17.4079C55.516 17.4184 55.5114 17.8303 55.4879 18.3231Z" fill="#F5F3ED"/>
<path d="M73.7784 6.46159C73.7784 6.94314 74.3168 7.52313 75.4775 8.29188C76.4318 8.9239 76.5816 9.09656 76.6163 9.60464C76.6727 10.4308 76.1695 10.8484 75.064 10.8927C74.6487 10.9093 74.426 10.9438 74.4248 10.9916C74.4239 11.032 74.4082 11.2688 74.39 11.518C74.3719 11.7671 74.286 13.7037 74.1991 15.8216C74.1123 17.9394 73.979 21.1389 73.9028 22.9316C73.7632 26.2189 73.7717 26.5914 73.9832 26.461C74.0289 26.4328 74.0401 26.4434 74.0121 26.4887C73.8658 26.725 74.788 26.9437 75.4314 26.8253C75.6453 26.7859 75.8641 26.7455 75.9176 26.7356C76.3436 26.6565 76.8727 26.38 77.1301 26.1019C77.4959 25.7067 77.7482 21.136 77.6373 16.9137L77.5886 15.0611L77.2555 15.021C76.3764 14.9152 76.0607 14.691 76.0034 14.1321C75.9262 13.3791 76.1042 13.1698 77.3207 12.5838C78.1925 12.1638 78.6271 11.8069 78.7796 11.3859C78.8635 11.1542 78.9643 11.0868 78.9643 11.2623C78.9643 11.6251 79.4391 12.1746 80.1786 12.6678C81.0213 13.2298 81.2765 13.4737 81.3323 13.7708C81.4741 14.5252 80.9698 15.0405 80.0865 15.0436L79.6853 15.045L79.65 15.32C79.5656 15.9784 79.0116 26.1622 79.0516 26.3212C79.3937 27.6822 82.9656 27.9289 83.4583 26.6256C83.5469 26.3914 83.63 26.3863 83.8462 26.6021C84.4909 27.2457 83.9577 29.1143 82.9525 29.7346C82.2717 30.1546 76.8756 30.3215 72.2551 30.0655C71.649 30.032 70.4616 29.9839 69.6165 29.9586L68.0799 29.9128L67.9104 29.6686C67.496 29.0716 67.4166 27.8783 67.693 26.4026C67.8327 25.6568 67.8394 25.4551 67.862 21.3106L67.8854 16.9953L67.5745 16.9561C66.7941 16.8577 66.5438 16.7084 66.4483 16.2844C66.3024 15.636 66.4889 15.3852 67.4905 14.8827C68.2797 14.4869 68.7442 14.1085 68.8558 13.7708L68.9338 13.535L69.0528 13.8479C69.2034 14.244 69.4615 14.5113 70.1243 14.9579C70.936 15.5047 71.0237 15.6174 71.0222 16.113C71.0205 16.7146 70.6504 16.9865 69.8329 16.9865C69.6036 16.9865 69.5001 17.0125 69.5001 17.0703C69.5001 17.1164 69.4533 17.6625 69.396 18.2838C69.2172 20.225 69.2704 24.211 69.5001 26.0728C69.6106 26.9685 70.0911 27.071 71.262 26.4486C72.0598 26.0245 72.1964 25.2456 72.3537 20.2222C72.3911 19.0299 72.4532 17.2825 72.4917 16.3393C72.5597 14.674 72.535 11.232 72.4535 11.0293C72.4236 10.955 72.2353 10.9091 71.7277 10.8525C70.6612 10.7335 70.3105 10.4672 70.233 9.7179C70.1653 9.0631 70.4212 8.68639 71.1531 8.36333C72.4416 7.79461 72.6572 7.6756 73.0103 7.33804C73.3636 7.00022 73.6488 6.55426 73.6488 6.33947C73.6488 6.28252 73.6779 6.25398 73.7136 6.27599C73.7492 6.29799 73.7784 6.38147 73.7784 6.46159Z" fill="#F5F3ED"/>
<path d="M92.0947 17.8004C92.722 17.8935 94.4994 18.3013 94.5655 18.3674C94.5821 18.3839 94.5218 18.6114 94.4316 18.873C94.3414 19.1346 94.1337 19.7782 93.97 20.3031C93.6572 21.3066 93.6421 21.3262 93.3104 21.161C92.4146 20.7148 90.2883 20.5553 89.2713 20.8581C88.5668 21.0678 87.9391 21.4066 88.0183 21.5345C88.0411 21.5712 88.0287 21.5821 87.9907 21.5588C87.9067 21.5069 87.5986 21.86 87.4788 22.1455C87.3207 22.5222 87.4222 23.143 87.7014 23.5065L87.8132 23.6521L88.5838 23.1842L89.3544 22.7163L90.2211 23.1659C90.6977 23.4133 91.0778 23.6452 91.0658 23.6814C91.0537 23.7175 90.701 24.0057 90.2821 24.3219L89.5203 24.8966L88.7638 24.6219C87.6776 24.2274 87.5325 24.2691 87.3165 25.0372C86.9124 26.4743 87.8337 27.4325 89.7018 27.5179C91.927 27.6196 94.223 25.9774 93.2743 24.9627C92.9157 24.5792 93.9029 25.0385 94.3553 25.4655C95.9212 26.9441 94.8683 29.2612 92.3395 29.9017C89.4415 30.6355 86.769 29.9847 85.6786 28.2794C84.3488 26.1998 84.3436 22.5974 85.6662 19.7393C86.4324 18.0838 88.9287 17.3308 92.0947 17.8004Z" fill="#F5F3ED"/>
<path d="M102.638 17.8806C104.739 18.5112 105.555 20.1856 104.706 22.1231L104.568 22.4384L104.345 22.1476C103.286 20.7624 99.5099 20.7777 98.254 22.1723C97.3971 23.1237 97.3322 25.1106 98.1276 26.0384C98.3605 26.3099 99.262 26.8013 99.3865 26.7245C99.4206 26.7034 99.4486 26.7123 99.4486 26.7441C99.4486 26.9347 101.387 27.1712 102.185 27.0779C104.15 26.8481 104.674 25.2859 103.014 24.6042L102.787 24.511L103.102 24.4615C106.21 23.973 107.726 27.0481 105.483 29.2882C103.842 30.927 99.5956 30.7184 97.8025 28.9109C96.2031 27.2987 95.8244 23.0121 97.0216 20.0709C97.1086 19.8571 97.1798 19.6467 97.1798 19.6033C97.1798 19.2931 98.3556 18.389 99.1694 18.0736C100.224 17.6647 101.654 17.5852 102.638 17.8806Z" fill="#F5F3ED"/>
<path fill-rule="evenodd" clip-rule="evenodd" d="M14.5501 21.3189C16.2512 22.4276 17.1786 22.6813 17.9093 22.2381L18.3386 21.9777L18.6538 22.0724C19.0916 22.2039 19.424 22.1377 20.0159 21.8009C20.0611 21.7752 20.1026 21.7513 20.141 21.7292C20.3766 21.5936 20.4904 21.5281 20.5592 21.5598C20.6235 21.5894 20.6486 21.7038 20.6971 21.9252C20.7055 21.9637 20.7147 22.0055 20.7249 22.0506C20.9722 23.145 20.8801 24.0116 20.3965 25.1402C20.2091 25.5775 20.0561 25.99 19.2904 28.1218C19.2165 28.3276 19.1531 28.5098 19.1005 28.6764C19.0044 28.5331 18.8757 28.414 18.7245 28.3291C18.5519 28.2322 18.3563 28.1836 18.1583 28.1883C17.7394 28.1607 17.6071 28.0561 17.6815 27.6596C17.7577 27.4046 17.7477 27.1315 17.6531 26.8827C17.5584 26.6338 17.3844 26.4231 17.1578 26.2829C16.9591 26.1447 16.9792 25.9142 16.9984 25.6941C17.0029 25.6425 17.0074 25.5914 17.009 25.5423C17.0158 25.3297 17.1972 25.3047 17.3565 25.2827C17.3912 25.278 17.4249 25.2733 17.4555 25.2669C17.6599 25.2091 17.8121 25.0765 17.9642 24.9439C18.0439 24.8745 18.1235 24.8052 18.2106 24.7465C18.3429 24.6584 18.3099 24.5263 18.263 24.3913C18.0205 23.7058 16.8409 23.122 16.1298 23.3395C16.0867 23.3467 16.0476 23.3689 16.0193 23.4021C15.991 23.4354 15.9755 23.4776 15.9754 23.5213C15.9758 23.5654 15.9922 23.6079 16.0216 23.6408C16.051 23.6738 16.0914 23.6949 16.1353 23.7002C16.1714 23.7097 16.2082 23.7179 16.2452 23.7262C16.3154 23.7418 16.3864 23.7576 16.455 23.7828C16.7141 23.8764 16.7665 24.0361 16.6507 24.2977C16.5074 24.6281 16.2428 24.6446 15.9451 24.6529C15.766 24.6529 15.5703 24.7025 15.6199 24.9558C15.7687 25.6882 15.6199 25.9085 14.862 25.9635C14.8351 25.9635 14.8079 25.9621 14.7804 25.9607C14.6553 25.9541 14.5257 25.9473 14.4127 26.0737C14.424 26.3542 14.5254 26.6235 14.7021 26.8418C14.8659 27.0216 14.779 27.1525 14.6927 27.2823C14.6614 27.3295 14.6302 27.3764 14.6112 27.4256C14.5993 27.4682 14.5779 27.5076 14.5485 27.5407C14.5192 27.5738 14.4827 27.5998 14.4418 27.6168C14.4009 27.6338 14.3567 27.6413 14.3125 27.6387C14.2683 27.6361 14.2253 27.6234 14.1867 27.6018C13.8854 27.5361 13.5757 27.5185 13.2689 27.5495C13.0732 27.5495 12.9327 27.5991 12.9024 27.8248C12.8911 28.0031 12.812 28.1702 12.6814 28.2921C12.5507 28.4139 12.3783 28.4812 12.1995 28.4801C12.1322 28.4732 12.0646 28.4912 12.0097 28.5308C11.9548 28.5704 11.9164 28.6288 11.9019 28.6949C11.87 28.8666 11.9977 28.9312 12.1293 28.9978C12.1454 29.0059 12.1616 29.0141 12.1775 29.0226C12.2718 29.0777 12.3785 29.1098 12.4848 29.1418C12.6704 29.1977 12.8546 29.2532 12.9685 29.43C12.9685 29.5331 12.9107 29.5916 12.857 29.646C12.8375 29.6657 12.8185 29.6849 12.8031 29.7054C12.5937 30.0248 12.602 30.0303 12.9685 30.212C13.2432 30.2979 13.4904 30.4546 13.6851 30.6663C13.6044 30.747 13.523 30.827 13.4415 30.9072L13.4414 30.9073C13.2782 31.0679 13.1146 31.2289 12.9547 31.396L12.943 31.4082C12.7065 31.6556 12.4497 31.9241 12.0783 31.5612C12.0235 31.5251 11.9593 31.5059 11.8936 31.5061C11.6428 31.4868 11.3672 31.5061 11.2514 31.7457C11.1451 31.9657 11.355 32.0881 11.533 32.192C11.5488 32.2012 11.5644 32.2103 11.5794 32.2192C11.5943 32.228 11.6111 32.2371 11.6286 32.2467C11.7382 32.3063 11.8791 32.3831 11.7889 32.4946C11.5784 32.7335 11.6357 32.9849 11.6941 33.2415C11.703 33.2806 11.712 33.3198 11.72 33.3592C11.7742 33.625 11.639 33.772 11.4955 33.928C11.4785 33.9465 11.4613 33.9652 11.4444 33.9842C10.9956 34.4001 10.57 34.8405 10.1697 35.3032C10.2164 35.3392 10.2806 35.3976 10.3483 35.4737C10.6034 35.5235 10.8059 35.6715 11.0076 35.819C11.0879 35.8777 11.1681 35.9364 11.2514 35.9887C11.3207 36.0252 11.378 36.0811 11.4161 36.1496C11.4543 36.218 11.4718 36.296 11.4664 36.3741C11.403 36.8284 11.6345 36.9441 12.0176 36.9633C12.1154 36.9633 12.2141 36.9885 12.3137 37.0138C12.3854 37.0321 12.4576 37.0505 12.5303 37.0597C12.9327 37.1065 13.0153 37.2249 12.8059 37.5498C12.5964 37.8747 12.6681 37.9821 12.952 38.1005C12.9749 38.1093 12.999 38.1172 13.0232 38.1252C13.1505 38.1671 13.2785 38.2093 13.2276 38.3758C13.1332 38.7477 13.3504 38.7559 13.5972 38.7653C13.6099 38.7658 13.6227 38.7663 13.6355 38.7668C14.2721 38.7971 14.5367 39.0862 14.5009 39.6892C14.4946 39.7799 14.4625 39.8733 14.4304 39.9667C14.3651 40.1569 14.2997 40.3472 14.4513 40.5152C14.5821 40.6602 14.758 40.6623 14.9386 40.6645C15.0702 40.666 15.2042 40.6676 15.325 40.7245C15.4722 40.7707 15.6288 40.7783 15.7798 40.7465C16.1083 40.7117 16.4383 40.7761 16.7279 40.9292C16.5369 41.0333 16.3037 41.1689 16.1502 41.2663C15.2404 41.8436 14.5497 42.0154 13.4413 41.9401C11.9525 41.8389 10.706 40.9907 8.79126 38.7754C8.71904 38.6919 8.61714 38.5588 8.18211 37.9798C7.6724 37.3015 7.31432 37.0407 5.62118 36.1147C3.25928 34.823 2.88089 34.2493 3.0436 32.2061C3.30574 28.9142 4.86333 26.8943 8.50097 25.1291C9.16056 24.809 10.0017 24.3997 10.3701 24.2194C11.1958 23.8155 11.5756 23.4775 12.1442 22.6412C13.2868 20.9602 13.6736 20.7477 14.5501 21.3189ZM9.6254 25.0033C5.83251 26.7728 3.21856 29.6597 3.47519 31.7958C3.58204 32.6848 4.10859 33.2933 4.83844 33.3713L5.03291 33.392L5.07304 32.4537C5.09593 31.9186 5.16159 31.3205 5.22577 31.0623C5.28768 30.8131 5.34672 30.5482 5.35703 30.4737C5.36741 30.3991 5.40694 30.2826 5.44493 30.2148C5.48292 30.147 5.59337 29.9168 5.69036 29.7032C6.23156 28.5112 6.99921 27.7591 8.63062 26.8223C10.3292 25.8469 10.6402 25.6113 10.6402 25.2992C10.6402 24.9153 10.1317 24.767 9.6254 25.0033ZM7.43197 35.5822C7.56777 35.1833 7.74495 34.9495 7.98239 34.8557C8.56172 34.6267 10.0932 35.0706 10.2473 35.5121C10.5357 36.338 10.1039 37.3478 9.48882 37.2861C9.07875 37.245 8.88234 37.1778 8.93309 37.0959C8.95688 37.0574 8.94354 37.0478 8.90185 37.0735C8.79942 37.1367 8.42137 36.9306 8.47648 36.8416C8.50227 36.7999 8.4917 36.7877 8.45139 36.8126C8.41308 36.8362 8.34294 36.8187 8.29555 36.7738C8.24811 36.7288 8.04884 36.5612 7.85274 36.4013C7.81501 36.3706 7.77982 36.342 7.74705 36.3154L7.74538 36.3141L7.74532 36.314L7.74508 36.3139C7.47548 36.0952 7.36992 36.0096 7.35219 35.9086C7.34077 35.8437 7.36572 35.7723 7.40671 35.6551C7.41459 35.6326 7.42305 35.6084 7.43197 35.5822Z" fill="#C2B795"/>
</svg>
