<svg xmlns="http://www.w3.org/2000/svg" width="8" height="8" viewBox="0 0 8 8" fill="none">
  <path d="M6.72271 3.68784L3.16261 0.127804C3.08027 0.045398 2.97035 0 2.85315 0C2.73595 0 2.62603 0.045398 2.54369 0.127804L2.28151 0.389915C2.11091 0.560711 2.11091 0.838302 2.28151 1.00884L5.27102 3.99834L2.27819 6.99116C2.19585 7.07357 2.15039 7.18342 2.15039 7.30056C2.15039 7.41783 2.19585 7.52768 2.27819 7.61015L2.54037 7.8722C2.62278 7.9546 2.73263 8 2.84983 8C2.96703 8 3.07695 7.9546 3.15929 7.8722L6.72271 4.30891C6.80525 4.22624 6.85058 4.11587 6.85032 3.99854C6.85058 3.88075 6.80525 3.77044 6.72271 3.68784Z" fill="#4F4C46"/>
</svg>