<svg xmlns="http://www.w3.org/2000/svg" width="12" height="12" viewBox="0 0 12 12" fill="none">
  <path d="M5.53176 9.33358L0.191706 3.99343C0.068097 3.86992 7.68461e-09 3.70504 0 3.52924C-7.68461e-09 3.35343 0.068097 3.18856 0.191706 3.06504L0.584873 2.67178C0.841066 2.41588 1.25745 2.41588 1.51326 2.67178L5.99751 7.15604L10.4867 2.6668C10.6104 2.54329 10.7751 2.4751 10.9508 2.4751C11.1267 2.4751 11.2915 2.54329 11.4152 2.6668L11.8083 3.06007C11.9319 3.18368 12 3.34846 12 3.52426C12 3.70006 11.9319 3.86494 11.8083 3.98845L6.46336 9.33358C6.33936 9.45738 6.1738 9.52538 5.99781 9.52499C5.82112 9.52538 5.65566 9.45738 5.53176 9.33358Z" fill="#4F4C46"/>
</svg>