             <svg width="24.000000" height="24.000000" viewBox="0 0 24 24" fill="none">
                <defs />
                <path
                  id="Union"
                  d="M22 2L22 5.44C22 6.52 21.4 7.47 20.52 7.97C20.97 8.43 21.24 9.06 21.24 9.75L21.24 12.42L19.86 12.42C19.33 12.42 18.85 12.26 18.44 12C18.42 12.9 18.22 13.78 17.85 14.62C17.53 15.36 17.36 16.15 17.36 16.96L17.36 18.63L17.36 18.63C17.47 20.42 15.91 22.03 14.13 21.99C13.73 21.99 13.35 21.92 12.98 21.78C12.68 21.67 12.37 21.61 12.05 21.61C11.74 21.61 11.42 21.67 11.12 21.78C8.98 22.61 6.65 20.93 6.75 18.63L6.75 18.63L6.75 16.98C6.75 16.18 6.56 15.37 6.2 14.64C5.8 13.82 5.58 12.91 5.55 11.99C5.14 12.26 4.65 12.42 4.13 12.42L2.75 12.42L2.75 9.75C2.75 9.06 3.02 8.43 3.47 7.97C2.59 7.47 2 6.52 2 5.44L2 2L3.17 2C3.17 2.95 3.94 3.72 4.89 3.72L19.1 3.72C20.05 3.72 20.82 2.95 20.82 2L22 2ZM19.1 7.17C20.05 7.17 20.82 6.39 20.82 5.44L20.82 4.32C20.34 4.68 19.74 4.89 19.1 4.89L17.32 4.89C17.92 5.5 18.31 6.29 18.42 7.17L19.1 7.17ZM4.89 4.89C4.25 4.89 3.65 4.68 3.17 4.32L3.17 5.44C3.17 6.39 3.94 7.17 4.89 7.17L5.57 7.17C5.67 6.29 6.07 5.5 6.66 4.89L4.89 4.89ZM6.72 7.63L6.72 11.78C6.72 12.59 6.9 13.4 7.26 14.13C7.59 14.81 7.8 15.55 7.88 16.3C8.43 15.84 9.11 15.56 9.83 15.53C10.26 15.51 10.7 15.58 11.11 15.73C11.71 15.96 12.39 15.96 13 15.73C13.41 15.58 13.84 15.51 14.28 15.53C15 15.56 15.68 15.84 16.22 16.3C16.27 15.73 16.4 15.17 16.59 14.62L15.38 14.62C13.55 14.62 12.05 13.13 12.05 11.3L12.05 10.5C12.05 8.66 13.55 7.17 15.38 7.17L17.23 7.17C17.01 5.88 15.89 4.89 14.54 4.89L9.45 4.89C7.94 4.89 6.72 6.12 6.72 7.63ZM3.92 11.25L4.13 11.25C4.91 11.25 5.54 10.61 5.54 9.83L5.54 8.34L5.33 8.34C4.55 8.34 3.92 8.97 3.92 9.75L3.92 11.25ZM17.04 13.45C17.19 12.92 17.27 12.37 17.27 11.81L17.27 8.34L15.38 8.34C14.19 8.34 13.23 9.31 13.23 10.5L13.23 11.3C13.23 12.48 14.19 13.45 15.38 13.45L17.04 13.45ZM19.86 11.25L20.07 11.25L20.07 9.75C20.07 8.97 19.43 8.34 18.66 8.34L18.45 8.34L18.45 9.83C18.45 10.61 19.08 11.25 19.86 11.25ZM9.41 11.12L8.24 11.12L8.24 12.29L9.41 12.29L9.41 11.12ZM14.57 11.12L15.74 11.12L15.74 12.29L14.57 12.29L14.57 11.12ZM13.4 20.69C14.16 20.98 15.06 20.78 15.62 20.18C16.01 19.77 16.21 19.23 16.19 18.66C16.14 17.61 15.28 16.75 14.23 16.7C13.95 16.69 13.67 16.73 13.41 16.83C12.54 17.15 11.57 17.15 10.7 16.83C10.44 16.73 10.16 16.69 9.88 16.7C8.83 16.75 7.97 17.61 7.92 18.66C7.89 19.23 8.1 19.77 8.49 20.18C9.04 20.78 9.95 20.98 10.71 20.69C11.57 20.36 12.54 20.36 13.4 20.69ZM10.79 18.05L9.61 18.05L9.61 19.22L10.79 19.22L10.79 18.05ZM14.49 18.05L13.32 18.05L13.32 19.22L14.49 19.22L14.49 18.05Z"
                  fill-rule="evenodd"
                />
              </svg>