              <svg width="24.000000" height="24.000000" viewBox="0 0 24 24" fill="none">
                <defs />
                <path
                  id="Union"
                  d="M22.99 13.96C22.23 9.06 19.64 5.34 14.78 4.39C14.44 3.74 13.82 2.78 12.79 2.04C10.97 0.74 8.79 0.76 6.65 1.51C6.01 1.73 6.09 2.62 6.73 2.75C8.25 3.09 8.88 3.85 9.25 4.52C7.95 4.81 7.16 5.16 6.25 5.76C1.7 8.77 0.39 12.85 1.23 16.28L1.23 16.28C2.22 20.29 6.34 22.8 6.51 22.9C6.61 22.96 6.72 23 6.85 23C7.03 23 8.16 22.96 8.95 22.03C9.64 21.21 9.84 19.99 9.54 18.41C9.46 18 9.03 17.77 8.64 17.94C8.63 17.94 7.56 18.4 6.26 18.35C4.69 18.3 3.46 17.54 2.6 16.11C2.82 15.72 3.29 15 3.99 14.39C5.27 13.27 6.73 13.02 8.33 13.63C8.46 13.68 10.6 14.52 13.4 15.08C16.27 15.65 19.68 15.91 22.39 14.75C22.4 14.74 22.42 14.73 22.44 14.73C22.64 14.64 22.78 14.58 22.89 14.41C22.98 14.27 23.01 14.12 22.99 13.96ZM13.15 4.19C12.17 4.14 11.29 4.2 10.58 4.29C10.31 3.72 9.88 2.93 8.96 2.3C11.12 2.13 12.42 3.19 13.15 4.19ZM8.8 12.43C6.53 11.52 4.15 12.06 2.3 14.29C2.32 12.36 3.1 9.39 6.96 6.84C7.42 6.53 7.81 6.33 8.21 6.17C9.18 5.79 10.38 5.57 11.42 5.5C12.65 5.41 13.91 5.48 15.1 5.79C12.53 7.81 12.39 10.83 13.69 13.82C10.97 13.28 8.84 12.45 8.8 12.43ZM15.24 14.08C14.69 13.05 13.8 10.96 14.34 9.03C14.66 7.94 15.41 7.02 16.59 6.32C19.53 7.69 21.03 10.46 21.63 13.67C19.68 14.41 17.3 14.36 15.24 14.08ZM18.19 9.29C17.82 9.29 17.54 9.59 17.54 9.94C17.54 10.28 17.82 10.58 18.19 10.58C18.55 10.58 18.83 10.29 18.83 9.94C18.83 9.58 18.55 9.29 18.19 9.29ZM8.37 19.39C8.43 20.18 8.3 20.8 7.98 21.19C7.67 21.56 7.24 21.66 7.01 21.69C6.58 21.4 5.33 20.53 4.24 19.22C5.55 19.76 7.02 19.75 8.37 19.39Z"
                  fill-rule="evenodd"
                />
              </svg>