              <svg width="24.000000" height="24.000000" viewBox="0 0 24 24" fill="none">
                <defs />
                <path
                  id="Union"
                  d="M20.85 7.92C20.86 7.77 20.87 7.62 20.87 7.47C20.87 5.23 19.04 3.4 16.8 3.4C16.6 3.4 16.4 3.41 16.2 3.44C15.2 2.13 13.66 1.35 11.99 1.35C10.31 1.35 8.77 2.13 7.78 3.44C7.58 3.41 7.38 3.4 7.18 3.4C4.93 3.4 3.11 5.23 3.11 7.47C3.11 7.62 3.11 7.77 3.13 7.92L-0.02 7.92L-0.02 8.89C-0.02 11.34 1.97 13.33 4.42 13.33L5.64 13.33L7.24 18.65C7.55 19.68 8.17 20.56 9.03 21.2C9.89 21.84 10.91 22.18 11.99 22.18C13.06 22.18 14.08 21.84 14.94 21.2C15.81 20.56 16.42 19.68 16.74 18.65L18.34 13.33L19.55 13.33C22 13.33 24 11.34 24 8.89L24 7.92L20.85 7.92ZM7.18 4.81C7.42 4.81 7.66 4.84 7.9 4.91L8.41 5.05L8.69 4.6C9.4 3.45 10.64 2.76 11.99 2.76C13.34 2.76 14.57 3.45 15.29 4.6L15.57 5.05L16.08 4.91C16.31 4.84 16.55 4.81 16.8 4.81C18.27 4.81 19.46 6 19.46 7.47C19.46 8.94 18.27 10.13 16.8 10.13C16.25 10.13 15.71 9.97 15.26 9.65L14.83 9.34L14.42 9.67C13.72 10.23 12.88 10.53 11.99 10.53C11.09 10.53 10.25 10.23 9.56 9.67L9.15 9.34L8.71 9.65C8.26 9.97 7.73 10.13 7.18 10.13C5.71 10.13 4.51 8.94 4.51 7.47C4.51 6 5.71 4.81 7.18 4.81ZM4.42 11.93C2.9 11.93 1.63 10.79 1.42 9.32L3.55 9.32C3.86 9.93 4.32 10.45 4.88 10.83L5.21 11.93L4.42 11.93ZM19.55 11.93L18.76 11.93L19.09 10.83C19.65 10.45 20.11 9.93 20.42 9.32L22.56 9.32C22.35 10.79 21.08 11.93 19.55 11.93ZM15.39 18.25C15.17 18.98 14.72 19.61 14.11 20.07C13.49 20.53 12.76 20.77 11.99 20.77C11.22 20.77 10.49 20.53 9.87 20.07C9.25 19.61 8.81 18.98 8.59 18.25L6.55 11.49C6.75 11.52 6.96 11.54 7.18 11.54C7.85 11.54 8.5 11.38 9.09 11.07C9.94 11.63 10.96 11.93 11.99 11.93C13.02 11.93 14.03 11.63 14.89 11.07C15.47 11.38 16.13 11.54 16.8 11.54C17.01 11.54 17.22 11.52 17.42 11.49L15.39 18.25ZM13.15 17.14L11.99 18.02L10.83 17.14L9.98 18.27L11.29 19.25L11.29 20.45L12.69 20.45L12.69 19.25L13.99 18.27L13.15 17.14Z"
                  fill-rule="evenodd"
                />
              </svg>