              <svg width="24.000000" height="24.000000" viewBox="0 0 24 24" fill="none">
                <defs />
                <path
                  id="Union"
                  d="M4.45 9.12C3.89 10.2 3.45 11.43 3.14 12.78C2.53 15.41 2.84 17.54 4.05 19.1C5.49 20.97 8.16 21.94 11.99 22L12 22L12 22C15.83 21.94 18.5 20.97 19.94 19.1C21.15 17.54 21.46 15.41 20.85 12.78C20.54 11.43 20.1 10.2 19.54 9.12C22.52 7.73 22.97 3.54 22.99 3.34C23.02 3.07 22.87 2.81 22.62 2.69C22.51 2.64 19.86 1.41 17.46 2.35C16.38 2.77 15.54 3.54 14.94 4.66C14.46 4.46 13.95 4.32 13.44 4.22C12.48 4.05 11.51 4.05 10.55 4.22C10.02 4.32 9.51 4.48 9.05 4.66C8.45 3.54 7.61 2.77 6.53 2.35C4.13 1.41 1.48 2.64 1.37 2.69C1.12 2.81 0.97 3.07 1 3.34C1.02 3.54 1.47 7.73 4.45 9.12ZM6.07 3.56C6.83 3.86 7.45 4.42 7.9 5.24C6.75 5.93 5.85 6.9 5.12 7.99C3.22 7.19 2.56 4.74 2.36 3.69C3.11 3.43 4.68 3.02 6.07 3.56ZM17.91 3.56C19.29 3.02 20.88 3.43 21.63 3.7C21.44 4.74 20.78 7.19 18.87 7.99C18.13 6.88 17.24 5.93 16.09 5.24C16.54 4.42 17.15 3.86 17.91 3.56ZM10.78 5.5C13.49 5 16.25 6.12 18.05 9.11C18.73 10.23 19.25 11.56 19.6 13.08C20.86 18.56 17.55 20.61 12 20.69C8.59 20.64 6.26 19.84 5.07 18.3C4.11 17.06 3.88 15.3 4.39 13.08C5.21 9.5 7.21 6.17 10.78 5.5ZM8.28 11.54C8.28 11.9 7.99 12.19 7.63 12.19C7.27 12.19 6.99 11.9 6.99 11.54C6.99 11.18 7.27 10.89 7.63 10.89C7.99 10.89 8.28 11.18 8.28 11.54ZM17 11.54C17 11.9 16.71 12.19 16.36 12.19C16 12.19 15.71 11.9 15.71 11.54C15.71 11.18 16 10.89 16.36 10.89C16.71 10.89 17 11.18 17 11.54ZM15.66 16.05C15.72 17.33 15.07 18.37 13.83 18.96C11.4 20.12 8.2 18.75 8.33 16.05C8.37 15.13 8.75 14.33 9.41 13.73C9.98 13.23 10.65 12.96 11.12 12.82C11.69 12.65 12.3 12.65 12.87 12.82C14.46 13.29 15.58 14.39 15.66 16.05ZM11.48 14.07C10.66 14.31 9.68 14.86 9.62 16.11C9.58 16.87 9.94 17.42 10.71 17.79C11.52 18.17 12.47 18.17 13.28 17.79C14.05 17.42 14.41 16.87 14.37 16.11C14.31 14.86 13.33 14.31 12.51 14.07C12.17 13.97 11.82 13.97 11.48 14.07ZM13.09 16.69C13.45 16.69 13.74 16.39 13.74 16.03C13.74 15.68 13.45 15.38 13.09 15.38C12.74 15.38 12.45 15.68 12.45 16.03C12.45 16.39 12.74 16.69 13.09 16.69ZM11.54 16.04C11.54 16.39 11.25 16.69 10.9 16.69C10.54 16.69 10.25 16.39 10.25 16.04C10.25 15.68 10.54 15.38 10.9 15.38C11.25 15.38 11.54 15.68 11.54 16.04Z"
                  fill-rule="evenodd"
                />
              </svg>