<svg width="24.000000" height="24.000000" viewBox="0 0 24 24" fill="none" xmlns="http://www.w3.org/2000/svg" xmlns:xlink="http://www.w3.org/1999/xlink">
	<desc>
			Created with Pixso.
	</desc>
	<defs/>
	<path id="Union" d="M23.47 5.53C23.09 5.13 22.57 4.89 22 4.87C21.96 4.33 21.71 3.84 21.28 3.49C20.48 2.83 19.28 2.83 18.49 3.49C17.79 4.04 17.57 5.02 17.98 5.83L17.1 6.65L15.05 7.35C14.24 7.63 13.46 8.03 12.78 8.53C11.27 7.88 9.54 7.55 7.62 7.55C4.99 7.53 2.48 8.92 1.23 11.11C0.18 12.9 0.04 15.14 0.94 17.04L0 17.04L0 19.02C0 20.11 0.94 21 2.11 21L19.05 21C20.22 21 21.17 20.11 21.17 19.02L21.17 17.04L19.76 17.04L19.76 16.38C19.76 15.47 19.1 14.7 18.21 14.47C18.14 14.26 18.04 13.99 17.91 13.68C18.52 12.99 19.01 12.2 19.34 11.36L20.09 9.45L20.97 8.62C21.74 8.99 22.87 8.82 23.47 8.15C24.17 7.4 24.17 6.28 23.47 5.53ZM19.76 19.02C19.76 19.38 19.45 19.68 19.05 19.68L2.11 19.68C1.72 19.68 1.4 19.38 1.4 19.02L1.4 18.35L19.76 18.35L19.76 19.02ZM18.35 16.38L18.35 17.04L2.51 17.04C1.51 15.38 1.48 13.43 2.47 11.74C3.51 9.94 5.43 8.87 7.62 8.87C9.11 8.87 10.47 9.09 11.67 9.52C10.51 10.85 10.62 13.01 11.98 14.23C13.2 15.41 15.34 15.62 16.8 14.67C16.97 15.18 16.97 15.31 17.06 15.71L17.64 15.71C18.03 15.71 18.35 16.01 18.35 16.38ZM16.38 13.3C15.52 14.15 13.89 14.18 12.98 13.3C12.07 12.49 12.03 10.96 12.98 10.11C13.7 9.44 14.58 8.91 15.54 8.59L17.3 7.98L18.67 9.25L18.02 10.91C17.67 11.8 17.1 12.63 16.38 13.3ZM22.41 7.28C22.19 7.52 21.69 7.6 21.38 7.31L20.88 6.84L19.48 8.15L18.48 7.22L19.88 5.91L19.38 5.44C19.14 5.22 19.08 4.75 19.42 4.47C19.64 4.3 20.04 4.23 20.35 4.47C20.61 4.69 20.7 5.15 20.38 5.44L21.38 6.37C21.62 6.14 22.12 6.09 22.41 6.4C22.64 6.65 22.64 7.03 22.41 7.28Z" fill="#B07560" fill-opacity="1.000000" fill-rule="nonzero"/>
</svg>
