<svg width="24.000000" height="24.000000" viewBox="0 0 24 24" fill="none" xmlns="http://www.w3.org/2000/svg" xmlns:xlink="http://www.w3.org/1999/xlink">
	<desc>
			Created with Pixso.
	</desc>
	<defs/>
	<path id="Union" d="M23.44 2.1C23.41 2.1 23.37 2.1 23.34 2.1C20.78 2.1 18.37 3.1 16.56 4.91C15.81 5.66 15.19 6.53 14.72 7.48C14.59 7.76 14.7 8.1 14.98 8.23C15.26 8.37 15.6 8.25 15.74 7.97C16.15 7.13 16.69 6.37 17.36 5.7C18.84 4.22 20.78 3.36 22.86 3.24C22.74 5.32 21.88 7.26 20.39 8.74C19.12 10.01 17.53 10.82 15.79 11.1L19.62 7.28C19.84 7.06 19.84 6.7 19.62 6.48C19.4 6.26 19.04 6.26 18.82 6.48L12.65 12.65C11.87 13.43 11.43 14.48 11.43 15.6L11.43 16.96C11.4 16.93 11.37 16.89 11.34 16.86L10.23 15.76C10.2 13.25 9.21 10.9 7.43 9.12C5.62 7.31 3.21 6.32 0.65 6.32C0.62 6.32 0.58 6.32 0.55 6.32C0.25 6.32 0 6.57 0 6.87C-0.03 9.47 0.97 11.91 2.8 13.75C4.58 15.53 6.93 16.52 9.44 16.55L10.54 17.66C11.12 18.23 11.43 19 11.43 19.81L11.43 21.33C11.43 21.64 11.68 21.89 12 21.89C12.31 21.89 12.56 21.64 12.56 21.33L12.56 15.6C12.56 14.78 12.87 14.02 13.45 13.44L14.55 12.34C17.06 12.3 19.41 11.31 21.19 9.54C23.02 7.7 24.02 5.26 24 2.66C23.99 2.35 23.74 2.11 23.44 2.1ZM3.6 12.95C2.11 11.47 1.25 9.53 1.13 7.46C3.21 7.57 5.15 8.43 6.63 9.92C7.9 11.19 8.71 12.78 9 14.52L5.17 10.69C4.95 10.47 4.59 10.47 4.37 10.69C4.15 10.91 4.15 11.27 4.37 11.49L8.2 15.32C6.46 15.03 4.87 14.22 3.6 12.95Z" fill="#B07560" fill-opacity="1.000000" fill-rule="nonzero"/>
</svg>
